M48
METRIC,TZ
T01C.5
T02C.8
T03C1.
T04C1.6
T05C1.8
T06C2.
T07C3.2
T08C2.7
T09C2.8
;LEADER: 12 
;HEADER: 
;CODE  : ASCII 
;FILE  : BP1_03V2-1-2.drl for  ... layers TOP and BOTTOM
;DESIGN: BP1_03V2.brd
;T01 Holesize 1. = 0.500000 Tolerance = +0.000000/-0.000000 PLATED MM Quantity = 237
;T02 Holesize 2. = 0.800000 Tolerance = +0.000000/-0.000000 PLATED MM Quantity = 8
;T03 Holesize 3. = 1.000000 Tolerance = +0.000000/-0.000000 PLATED MM Quantity = 6
;T04 Holesize 4. = 1.600000 Tolerance = +0.000000/-0.000000 PLATED MM Quantity = 15
;T05 Holesize 5. = 1.800000 Tolerance = +0.000000/-0.000000 PLATED MM Quantity = 8
;T06 Holesize 6. = 2.000000 Tolerance = +0.000000/-0.000000 PLATED MM Quantity = 12
;T07 Holesize 7. = 3.200000 Tolerance = +0.100000/-0.100000 PLATED MM Quantity = 2
;T08 Holesize 8. = 2.700000 Tolerance = +0.000000/-0.000000 NON_PLATED MM Quantity = 4
;T09 Holesize 9. = 2.800000 Tolerance = +0.100000/-0.100000 NON_PLATED MM Quantity = 2
%
G90
T01
X-666940Y1154580
R09X-50800
X-1164580Y1123840
R06Y-50800
X-1126490Y785420
X-1075690
X-1025920Y795590
X-990000Y831510
X-954080Y867430
X-918160Y903350
X-882240Y939280
X-846320Y975200
X-810400Y1011120
X-774480Y1047040
X-738560Y1082960
X-789570Y1103780
R06X-50800
X-1113780Y1056830
R04Y-50800
X-1066060Y836220
X-1025950Y867400
X-990030Y903320
X-954110Y939240
X-918190Y975160
X-882270Y1011080
X-846350Y1047000
X-912210Y1052980
R02X-50800
X-1062980Y1040210
R02Y-50800
X-1013810Y951380
X-977890Y987300
X-500000Y1910000
X-509230Y1945680
X-565210Y1997280
R18X-38100
X-1288750Y1992080
X-1263930Y1963180
X-1236990Y1936240
X-1210050Y1909300
X-1183110Y1882360
X-1149080Y1865220
R17X38100
X-1160000Y1920000
X-1100000Y1910000
X-1048740Y1912280
R13X38100
X-587520Y1957480
X-644620Y1959560
R13X-38100
X-1200000Y1960000
X-540000Y840000
X-536080Y769100
X-590000Y790000
X-536080Y718300
X-586880
X-640000Y740000
X-536080Y667500
R02X-50800
X-690000Y690000
X-536080Y616700
R04X-50800
X-536080Y565900
R04X-50800
X-790000Y590000
X-485280Y515100
R06X-50800
X-840000Y540000
X-485280Y464300
R07X-50800
X-890000Y480000
R04X-50000
X-1150000
X-485280Y413500
R14X-50800
X-1250000Y440000
X-1110140Y1815270
R10X38100
X-490000Y570000
Y630000
X-500000Y700000
Y780000
Y870000
X-520000Y810000
X-1250000Y410000
X-1370000Y600000
X-1390000
X-1455500Y980000
X-1509500Y895500
X-1468270Y910000
X-1515000Y940000
X-1524750Y1076500
X-1425000Y885000
X-1370000Y1120000
X-1405000
X-1370000Y1000000
Y1050000
X-1425000Y1070000
X-1395000Y1025000
X-1425000Y1030000
X-1370000Y1085000
X-1390000Y670000
X-1370000
Y1290000
X-1390000
X-430000Y2180000
Y2240000
X-280000
R02Y-30000
X-430000Y2210000
X-380000Y2240000
R02Y-30000
T02
X-57150Y1854200
Y1879600
Y1752600
Y1778000
Y1651000
Y1676400
Y1549400
Y1574800
T03
X-140000Y1805000
X-130000Y1680000
X-100000
X-110000Y1550000
X-105000Y1580000
Y1800000
T04
X-1485900Y1460500
X-1435100Y1511300
X-1485900Y1562100
X-1435100Y1612900
X-1485900Y1663700
X-1435100Y1714500
X-1485900Y1765300
X-1435100Y1816100
X-1485900Y1866900
X-1435100Y1917700
X-1485900Y1968500
X-1435100Y2019300
X-1485900Y2070100
X-1435100Y2120900
X-1485900Y2171700
T05
X-240000Y1570000
X-200000Y1510000
X-140000Y1410000
X-130000Y1330000
X-370000Y2080000
Y2020000
X-390000Y1340000
Y1400000
T06
X-620000Y220000
Y120000
X-990000Y220000
Y120000
X-250000Y220000
Y120000
X-1360000Y220000
Y120000
X-180000Y1110000
X-280000
X-230000Y590000
Y490000
T07
X-520000Y1830000
X-1200000Y480000
T08
X0Y2222500
X0Y1333500
X0Y889000
X0Y0
T09
X-1536700Y2222500
Y1333500
M30
