G04 ================== begin FILE IDENTIFICATION RECORD ==================*
G04 Layout Name:  D:/Project/Circuit/BP1/03v2/pcb/BP1_03V2.brd*
G04 Film Name:    MASK_TOP*
G04 File Format:  Gerber RS274X*
G04 File Origin:  Cadence Allegro 16.6-S036*
G04 Origin Date:  Wed Nov 05 15:41:14 2014*
G04 *
G04 Layer:  PACKAGE GEOMETRY/SOLDERMASK_TOP*
G04 Layer:  PIN/SOLDERMASK_TOP*
G04 Layer:  VIA CLASS/SOLDERMASK_TOP*
G04 *
G04 Offset:    (0.000 0.000)*
G04 Mirror:    No*
G04 Mode:      Positive*
G04 Rotation:  0*
G04 FullContactRelief:  No*
G04 UndefLineWidth:     0.000*
G04 ================== end FILE IDENTIFICATION RECORD ====================*
%FSLAX34Y34*MOMM*%
%IR0*IPPOS*OFA0.00000B0.00000*MIA0B0*SFA1.00000B1.00000*%
%ADD14O,.8X1.3*%
%ADD24O,1.3X.8*%
%ADD22O,1.5X.8*%
%ADD21C,3.*%
%ADD18R,11.X9.6*%
%ADD15R,.8X1.3*%
%ADD25R,1.3X.8*%
%ADD34C,1.4*%
%ADD26C,3.2*%
%ADD31C,3.3*%
%ADD29C,4.2*%
%ADD23R,1.5X.8*%
%ADD35C,1.7*%
%ADD20C,2.6*%
%ADD37C,2.8*%
%ADD27R,3.2X3.2*%
%ADD36R,1.7X1.7*%
%ADD19R,2.6X2.6*%
%ADD28R,2.X1.4*%
%ADD13R,1.4X2.*%
%ADD12R,3.X1.4*%
%ADD30R,1.4X3.*%
%ADD32R,1.8X3.2*%
%ADD10R,1.4X2.9*%
%ADD16R,1.4X1.65*%
%ADD11R,2.46X3.4*%
%ADD17R,1.55X4.8*%
%ADD33R,6.9X6.9*%
%LPD*%
G75*
G54D10*
X-1513750Y390000D03*
Y450000D03*
X-1433750Y390000D03*
X-1466250D03*
X-1433750Y450000D03*
X-1466250D03*
X-1386250Y390000D03*
Y450000D03*
X-263750Y2130000D03*
Y2090000D03*
Y2180000D03*
Y2220000D03*
X-216250Y2130000D03*
Y2090000D03*
Y2180000D03*
Y2220000D03*
G54D11*
X-1514500Y520000D03*
Y600000D03*
X-1445500Y520000D03*
Y600000D03*
G54D20*
X-1485900Y1562100D03*
Y1663700D03*
Y1765300D03*
Y1866900D03*
Y1968500D03*
Y2070100D03*
Y2171700D03*
X-1435100Y1511300D03*
Y1612900D03*
Y1714500D03*
Y1816100D03*
Y1917700D03*
Y2019300D03*
Y2120900D03*
G54D30*
X-344750Y790000D03*
X-315250D03*
X-215250D03*
X-244750D03*
X-115250D03*
X-144750D03*
G54D12*
X-1510000Y685250D03*
Y714750D03*
Y745250D03*
Y774750D03*
Y805250D03*
Y834750D03*
X-1450000Y685250D03*
Y714750D03*
Y745250D03*
Y774750D03*
Y805250D03*
Y834750D03*
X-1390000Y685250D03*
Y714750D03*
Y745250D03*
Y774750D03*
Y805250D03*
Y834750D03*
X-160000Y1954750D03*
Y1925250D03*
X-100000D03*
Y1954750D03*
X-120000Y2034750D03*
Y2005250D03*
X-40000Y1954750D03*
Y1925250D03*
X-60000Y2005250D03*
Y2034750D03*
X0D03*
Y2005250D03*
G54D21*
X-1460500Y0D03*
X-88900D03*
Y2222500D03*
G54D13*
X-1524750Y885000D03*
X-1495250D03*
Y1060000D03*
X-1524750D03*
Y1030000D03*
X-1495250D03*
X-1469750Y885000D03*
X-1440250D03*
X-104750Y1500000D03*
X-105250Y1650000D03*
X-134750D03*
Y1750000D03*
X-105250D03*
Y1780000D03*
X-134750D03*
X-75250Y1500000D03*
G54D31*
X-390000Y1340000D03*
Y1400000D03*
X-370000Y2020000D03*
Y2080000D03*
X-200000Y1510000D03*
X-240000Y1570000D03*
X-130000Y1330000D03*
X-140000Y1410000D03*
G54D22*
X-1415180Y959050D03*
Y946350D03*
Y933650D03*
Y920950D03*
X-1464820D03*
Y933650D03*
Y946350D03*
G54D32*
X-351000Y2130350D03*
X-306000D03*
G54D23*
X-1464820Y959050D03*
G54D14*
X-1490500Y909250D03*
Y979250D03*
X-1500000Y930750D03*
Y1000750D03*
X-120000Y1859250D03*
X-129500Y1880750D03*
G54D33*
X-330000Y2209050D03*
G54D15*
X-1509500Y909250D03*
Y979250D03*
X-110500Y1880750D03*
G54D24*
X-1460750Y1050000D03*
X-1439250Y1059500D03*
G54D16*
X-1508750Y955000D03*
X-1491250D03*
X-1458750Y995000D03*
X-1441250D03*
X-1413750Y1005000D03*
X-1396250D03*
G54D34*
X-110000Y1550000D03*
X-105000Y1580000D03*
X-130000Y1680000D03*
X-105000Y1800000D03*
X-140000Y1805000D03*
X-100000Y1680000D03*
G54D25*
X-1439250Y1040500D03*
G54D17*
X-1475400Y1106000D03*
X-1424600D03*
G54D35*
X-57150Y1574800D03*
Y1676400D03*
Y1778000D03*
Y1879600D03*
G54D26*
X-1360000Y120000D03*
X-990000D03*
X-620000D03*
X-250000D03*
X-280000Y1110000D03*
X-230000Y490000D03*
G54D36*
X-57150Y1549400D03*
Y1651000D03*
Y1752600D03*
Y1854200D03*
G54D27*
X-1360000Y220000D03*
X-990000D03*
X-620000D03*
X-250000D03*
X-230000Y590000D03*
X-180000Y1110000D03*
G54D18*
X-1450000Y1211920D03*
G54D28*
X-1385000Y890250D03*
Y979750D03*
Y950250D03*
Y919750D03*
G54D19*
X-1485900Y1460500D03*
G54D37*
X0Y0D03*
Y889000D03*
Y1333500D03*
Y2222500D03*
G54D29*
X-1200000Y480000D03*
X-520000Y1830000D03*
M02*
