G04 ================== begin FILE IDENTIFICATION RECORD ==================*
G04 Layout Name:  D:/Project/Circuit/BP1/03v2/pcb/BP1_03V2.brd*
G04 Film Name:    SILK_TOP*
G04 File Format:  Gerber RS274X*
G04 File Origin:  Cadence Allegro 16.6-S036*
G04 Origin Date:  Wed Nov 05 15:41:14 2014*
G04 *
G04 Layer:  MANUFACTURING/AUTOSILK_TOP*
G04 *
G04 Offset:    (0.000 0.000)*
G04 Mirror:    No*
G04 Mode:      Positive*
G04 Rotation:  0*
G04 FullContactRelief:  No*
G04 UndefLineWidth:     0.200*
G04 ================== end FILE IDENTIFICATION RECORD ====================*
%FSLAX34Y34*MOMM*%
%IR0*IPPOS*OFA0.00000B0.00000*MIA0B0*SFA1.00000B1.00000*%
%ADD10C,.2*%
%ADD11C,.4*%
%ADD12C,.15*%
G75*
%LPD*%
G75*
G54D10*
G01X-1535000Y170000D02*
G03X-1360000Y-5000I175000J0D01*
G01Y345000D02*
G03X-1535000Y170000I0J-175000D01*
G01X-1522740Y406000D02*
X-1523000D01*
Y374000D01*
X-1522740D01*
G01X-1504760D02*
X-1475240D01*
G01Y406000D02*
X-1504760D01*
G01X-1522740Y466000D02*
X-1523000D01*
Y434000D01*
X-1522740D01*
G01X-1504760D02*
X-1475240D01*
G01X-1529000Y550000D02*
X-1431000D01*
Y490000D01*
X-1529000D01*
Y550000D01*
G01X-1475240Y466000D02*
X-1504760D01*
G01X-1529000Y630000D02*
X-1431000D01*
Y570000D01*
X-1529000D01*
Y630000D01*
G01X-1493000Y724000D02*
Y676000D01*
X-1527000D01*
Y724000D01*
X-1493000D01*
G01Y784000D02*
Y736000D01*
X-1527000D01*
Y784000D01*
X-1493000D01*
G01Y844000D02*
Y796000D01*
X-1527000D01*
Y844000D01*
X-1493000D01*
G01X-1486000Y897000D02*
X-1534000D01*
Y873000D01*
X-1486000D01*
Y897000D01*
G01X-1515000Y922000D02*
X-1485000D01*
Y919000D01*
X-1515000D01*
Y922000D01*
G01X-1482220Y944840D02*
X-1482260D01*
G01X-1517740D02*
X-1517780D01*
G01D02*
Y965160D01*
G01D02*
X-1517740D01*
G01X-1482260D02*
X-1482220D01*
G01D02*
Y944840D01*
G01X-1534000Y1048000D02*
X-1486000D01*
Y1072000D01*
X-1534000D01*
Y1048000D01*
G01X-1486000Y1042000D02*
X-1534000D01*
Y1018000D01*
X-1486000D01*
Y1042000D01*
G01X-1515000Y992000D02*
X-1485000D01*
Y989000D01*
X-1515000D01*
Y992000D01*
G01X-1509500Y1211920D02*
Y1134500D01*
X-1390500D01*
Y1211920D01*
G01X-1553900Y2256500D02*
X-1377900D01*
Y1316500D01*
X-1553900D01*
Y2256500D01*
G01X-1442740Y406000D02*
X-1443000D01*
Y374000D01*
X-1442740D01*
G01X-1424760D02*
X-1395240D01*
G01X-1457260D02*
X-1457000D01*
Y406000D01*
G01X-1395240D02*
X-1424760D01*
G01X-1457000D02*
X-1457260D01*
G01X-1442740Y466000D02*
X-1443000D01*
Y434000D01*
X-1442740D01*
G01X-1424760D02*
X-1395240D01*
G01X-1457260D02*
X-1457000D01*
Y466000D01*
G01X-1480000Y490500D02*
Y549500D01*
G01X-1395240Y466000D02*
X-1424760D01*
G01X-1457000D02*
X-1457260D01*
G01X-1480000Y570500D02*
Y629500D01*
G01X-1433000Y724000D02*
Y676000D01*
X-1467000D01*
Y724000D01*
X-1433000D01*
G01X-1373000D02*
Y676000D01*
X-1407000D01*
Y724000D01*
X-1373000D01*
G01X-1433000Y784000D02*
Y736000D01*
X-1467000D01*
Y784000D01*
X-1433000D01*
G01X-1373000D02*
Y736000D01*
X-1407000D01*
Y784000D01*
X-1373000D01*
G01X-1433000Y844000D02*
Y796000D01*
X-1467000D01*
Y844000D01*
X-1433000D01*
G01X-1373000D02*
Y796000D01*
X-1407000D01*
Y844000D01*
X-1373000D01*
G01X-1431000Y897000D02*
X-1479000D01*
Y873000D01*
X-1431000D01*
Y897000D01*
G01X-1451320Y915500D02*
Y964500D01*
X-1428680D01*
Y915500D01*
X-1451320D01*
G01X-1432220Y984840D02*
X-1432260D01*
G01X-1467740D02*
X-1467780D01*
G01D02*
Y1005160D01*
G01X-1432220D02*
Y984840D01*
G01X-1452000Y1035000D02*
Y1065000D01*
X-1449000D01*
Y1035000D01*
X-1452000D01*
G01X-1467780Y1005160D02*
X-1467740D01*
G01X-1432260D02*
X-1432220D01*
G01X-1422780Y1015160D02*
X-1422740D01*
G01Y994840D02*
X-1422780D01*
G01D02*
Y1015160D01*
G01X-1360000Y-5000D02*
G03X-1185000Y170000I0J175000D01*
G01X-1377260Y374000D02*
X-1377000D01*
Y406000D01*
G01X-1185000Y170000D02*
G03X-1360000Y345000I-175000J0D01*
G01X-1377000Y406000D02*
X-1377260D01*
G01Y434000D02*
X-1377000D01*
Y466000D01*
G01D02*
X-1377260D01*
G01X-1397000Y929000D02*
Y881000D01*
X-1373000D01*
Y929000D01*
X-1397000D01*
G01X-1373000Y941000D02*
Y989000D01*
X-1397000D01*
Y941000D01*
X-1373000D01*
G01X-1387260Y1015160D02*
X-1387220D01*
G01D02*
Y994840D01*
G01D02*
X-1387260D01*
G01X-460000Y2000000D02*
Y400000D01*
X-1280000D01*
Y2000000D01*
X-460000D01*
G01X-1219440Y323500D02*
Y301620D01*
G01X-1230380Y312560D02*
X-1208500D01*
G01X-520000Y2000000D02*
Y2190000D01*
X-1190000D01*
Y2000000D01*
G01X-1165000Y170000D02*
G03X-990000Y-5000I175000J0D01*
G01Y345000D02*
G03X-1165000Y170000I0J-175000D01*
G01X-990000Y-5000D02*
G03X-815000Y170000I0J175000D01*
G01D02*
G03X-990000Y345000I-175000J0D01*
G01X-620000D02*
G03X-795000Y170000I0J-175000D01*
G01D02*
G03X-620000Y-5000I175000J0D01*
G01X-849440Y323500D02*
Y301620D01*
G01X-860380Y312560D02*
X-838500D01*
G01X-620000Y-5000D02*
G03X-445000Y170000I0J175000D01*
G01D02*
G03X-620000Y345000I-175000J0D01*
G01X-490380Y312560D02*
X-468500D01*
G01X-425000Y170000D02*
G03X-250000Y-5000I175000J0D01*
G01Y345000D02*
G03X-425000Y170000I0J-175000D01*
G01X-479440Y323500D02*
Y301620D01*
G01X-405000Y540000D02*
G03X-230000Y365000I175000J0D01*
G01Y715000D02*
G03X-405000Y540000I0J-175000D01*
G01X-354000Y807000D02*
X-306000D01*
Y773000D01*
X-354000D01*
Y807000D01*
G01X-405000Y1110000D02*
G03X-230000Y935000I175000J0D01*
G01Y1285000D02*
G03X-405000Y1110000I0J-175000D01*
G01X-367000Y2211000D02*
Y2172000D01*
G01D02*
X-293000D01*
G01X-272740Y2146000D02*
X-273000D01*
Y2114000D01*
X-272740D01*
G01Y2106000D02*
X-273000D01*
Y2074000D01*
X-272740D01*
G01X-273000Y2164000D02*
X-272740D01*
G01Y2196000D02*
X-273000D01*
Y2164000D01*
G01Y2204000D02*
X-272740D01*
G01Y2236000D02*
X-273000D01*
Y2204000D01*
G01X-293000Y2172000D02*
Y2209000D01*
G01X-250000Y-5000D02*
G03X-75000Y170000I0J175000D01*
G01X-230000Y365000D02*
G03X-55000Y540000I0J175000D01*
G01X-75000Y170000D02*
G03X-250000Y345000I-175000J0D01*
G01X-55000Y540000D02*
G03X-230000Y715000I-175000J0D01*
G01X-254000Y807000D02*
X-206000D01*
Y773000D01*
X-254000D01*
Y807000D01*
G01X-230000Y935000D02*
G03X-55000Y1110000I0J175000D01*
G01D02*
G03X-230000Y1285000I-175000J0D01*
G01X-254760Y2114000D02*
X-225240D01*
G01X-207260D02*
X-207000D01*
Y2146000D01*
G01Y2106000D02*
X-207260D01*
G01X-225240D02*
X-254760D01*
G01Y2074000D02*
X-225240D01*
G01X-207260D02*
X-207000D01*
Y2106000D01*
G01X-254760Y2164000D02*
X-225240D01*
G01X-207260D02*
X-207000D01*
Y2196000D01*
X-207260D01*
G01X-225240D02*
X-254760D01*
G01X-207000Y2146000D02*
X-207260D01*
G01X-225240D02*
X-254760D01*
G01Y2204000D02*
X-225240D01*
G01X-207260D02*
X-207000D01*
Y2236000D01*
X-207260D01*
G01X-225240D02*
X-254760D01*
G01X-109440Y323500D02*
Y301620D01*
G01X-120380Y312560D02*
X-98500D01*
G01X-154000Y807000D02*
X-106000D01*
Y773000D01*
X-154000D01*
Y807000D01*
G01X-114000Y1488000D02*
X-66000D01*
Y1512000D01*
X-114000D01*
Y1488000D01*
G01X-144000Y1638000D02*
X-96000D01*
Y1662000D01*
X-144000D01*
Y1638000D01*
G01X-96000Y1762000D02*
X-144000D01*
Y1738000D01*
X-96000D01*
Y1762000D01*
G01X-144000Y1768000D02*
X-96000D01*
Y1792000D01*
X-100900D01*
G01X-109100D02*
X-144000D01*
Y1768000D01*
G01X-105000Y1868000D02*
X-135000D01*
Y1871000D01*
X-105000D01*
Y1868000D01*
G01X-177000Y1916000D02*
Y1964000D01*
X-143000D01*
Y1916000D01*
X-177000D01*
G01X-83000Y1964000D02*
Y1916000D01*
X-117000D01*
Y1964000D01*
X-83000D01*
G01X-137000Y1996000D02*
Y2044000D01*
X-103000D01*
Y1996000D01*
X-137000D01*
G01X-89440Y693500D02*
Y671620D01*
G01X-100380Y682560D02*
X-78500D01*
G01X-76500Y969440D02*
X-98380D01*
G01X-87440Y980380D02*
Y958500D01*
G01X-28030Y1562100D02*
G03X-57150Y1591220I-29120J0D01*
G01D02*
G03X-86270Y1562100I0J-29120D01*
G01D02*
G03X-57150Y1532980I29120J0D01*
G01D02*
G03X-28030Y1562100I0J29120D01*
G01X-89150Y1536100D02*
X-77150D01*
G01X-83150Y1530100D02*
Y1542100D01*
G01X-57150Y1692820D02*
G03X-86270Y1663700I0J-29120D01*
G01D02*
G03X-57150Y1634580I29120J0D01*
G01D02*
G03X-28030Y1663700I0J29120D01*
G01X-89150Y1637700D02*
X-77150D01*
G01X-83150Y1631700D02*
Y1643700D01*
G01X-28030Y1663700D02*
G03X-57150Y1692820I-29120J0D01*
G01X-86270Y1765300D02*
G03X-57150Y1736180I29120J0D01*
G01D02*
G03X-28030Y1765300I0J29120D01*
G01X-89150Y1739300D02*
X-77150D01*
G01X-83150Y1733300D02*
Y1745300D01*
G01X-28030Y1765300D02*
G03X-57150Y1794420I-29120J0D01*
G01D02*
G03X-86270Y1765300I0J-29120D01*
G01X-28030Y1866900D02*
G03X-57150Y1896020I-29120J0D01*
G01D02*
G03X-86270Y1866900I0J-29120D01*
G01D02*
G03X-57150Y1837780I29120J0D01*
G01D02*
G03X-28030Y1866900I0J29120D01*
G01X-89150Y1840900D02*
X-77150D01*
G01X-83150Y1834900D02*
Y1846900D01*
G01X-57000Y1916000D02*
Y1964000D01*
X-23000D01*
Y1916000D01*
X-57000D01*
G01X-43000Y2044000D02*
Y1996000D01*
X-77000D01*
Y2044000D01*
X-43000D01*
G01X-17000Y1996000D02*
Y2044000D01*
X17000D01*
Y1996000D01*
X-17000D01*
G54D11*
G01X-1492150Y1104000D02*
G03I-2000J0D01*
G01X-1463310Y968550D02*
G03X-1465320Y970560I-2010J0D01*
G01D02*
G03X-1467340Y968550I-10J-2010D01*
G01D02*
G03X-1465320Y966540I2010J0D01*
G01D02*
G03X-1463310Y968550I0J2010D01*
G01X-365500Y2129950D02*
G03I-2000J0D01*
G54D12*
G01X-1487940Y326640D02*
X-1488900Y327280D01*
X-1490030Y327700D01*
X-1491310D01*
X-1492760Y327060D01*
X-1493890Y326010D01*
X-1494690Y324740D01*
X-1495340Y322620D01*
X-1495500Y320710D01*
X-1495170Y318810D01*
X-1494690Y317540D01*
X-1493730Y316270D01*
X-1492600Y315420D01*
X-1491480Y315000D01*
X-1490350D01*
X-1489220Y315420D01*
X-1488260Y316060D01*
X-1487450Y316900D01*
G01X-1482060D02*
X-1481100Y315850D01*
X-1479970Y315210D01*
X-1478530Y315000D01*
X-1477080Y315420D01*
X-1475950Y316270D01*
X-1475150Y317750D01*
X-1474990Y319440D01*
X-1475310Y321140D01*
X-1476110Y322200D01*
X-1477240Y323040D01*
X-1478360Y323250D01*
X-1479490Y323040D01*
X-1480940Y322200D01*
X-1480460Y327700D01*
X-1476110D01*
G01X-1506180Y410000D02*
Y422700D01*
X-1502160D01*
X-1500870Y422060D01*
X-1500070Y421220D01*
X-1499750Y419520D01*
X-1500070Y417830D01*
X-1501030Y416770D01*
X-1502160Y416140D01*
X-1506180D01*
G01X-1502160D02*
X-1499750Y410000D01*
G01X-1493550Y412540D02*
X-1492590Y411060D01*
X-1491300Y410210D01*
X-1489850Y410000D01*
X-1488570Y410210D01*
X-1487280Y411270D01*
X-1486480Y412540D01*
X-1486320Y413810D01*
X-1486640Y415290D01*
X-1487760Y416350D01*
X-1488890Y416770D01*
X-1490340D01*
G01X-1488890D02*
X-1487920Y417410D01*
X-1487120Y418470D01*
X-1486800Y419740D01*
X-1487120Y421010D01*
X-1487920Y422060D01*
X-1489370Y422700D01*
X-1490820Y422490D01*
X-1492270Y421640D01*
G01X-1477070Y410000D02*
X-1475940Y410210D01*
X-1474650Y410850D01*
X-1473850Y411900D01*
X-1473530Y413390D01*
X-1473850Y414870D01*
X-1474810Y416140D01*
X-1476260Y416770D01*
X-1477870D01*
X-1478830Y417200D01*
X-1479640Y418250D01*
X-1479960Y419740D01*
X-1479480Y421220D01*
X-1478350Y422280D01*
X-1477070Y422700D01*
X-1475780Y422280D01*
X-1474650Y421220D01*
X-1474170Y419740D01*
X-1474490Y418250D01*
X-1475300Y417200D01*
X-1476260Y416770D01*
X-1477870D01*
X-1479320Y416140D01*
X-1480280Y414870D01*
X-1480600Y413390D01*
X-1480280Y411900D01*
X-1479480Y410850D01*
X-1478190Y410210D01*
X-1477070Y410000D01*
G01X-1506180Y470000D02*
Y482700D01*
X-1502160D01*
X-1500870Y482060D01*
X-1500070Y481220D01*
X-1499750Y479520D01*
X-1500070Y477830D01*
X-1501030Y476770D01*
X-1502160Y476140D01*
X-1506180D01*
G01X-1502160D02*
X-1499750Y470000D01*
G01X-1493550Y472540D02*
X-1492590Y471060D01*
X-1491300Y470210D01*
X-1489850Y470000D01*
X-1488570Y470210D01*
X-1487280Y471270D01*
X-1486480Y472540D01*
X-1486320Y473810D01*
X-1486640Y475290D01*
X-1487760Y476350D01*
X-1488890Y476770D01*
X-1490340D01*
G01X-1488890D02*
X-1487920Y477410D01*
X-1487120Y478470D01*
X-1486800Y479740D01*
X-1487120Y481010D01*
X-1487920Y482060D01*
X-1489370Y482700D01*
X-1490820Y482490D01*
X-1492270Y481640D01*
G01X-1480120Y475290D02*
X-1479000Y476770D01*
X-1478030Y477620D01*
X-1476740Y478040D01*
X-1475620Y477620D01*
X-1474810Y476770D01*
X-1474170Y475500D01*
X-1474010Y474020D01*
X-1474170Y472750D01*
X-1474810Y471480D01*
X-1475780Y470420D01*
X-1476900Y470000D01*
X-1478190Y470420D01*
X-1479320Y471690D01*
X-1479960Y473600D01*
X-1480120Y475710D01*
X-1479800Y478470D01*
X-1479320Y479950D01*
X-1478510Y481430D01*
X-1477390Y482490D01*
X-1476260Y482700D01*
X-1475130Y482280D01*
X-1474330Y481220D01*
G01X-1490000Y716170D02*
X-1477300D01*
Y712150D01*
X-1477940Y710860D01*
X-1478780Y710060D01*
X-1480480Y709740D01*
X-1482170Y710060D01*
X-1483230Y711020D01*
X-1483860Y712150D01*
Y716170D01*
G01Y712150D02*
X-1490000Y709740D01*
G01Y700010D02*
X-1477300D01*
X-1479840Y701940D01*
G01X-1490000D02*
Y698080D01*
G01Y687380D02*
X-1487250Y687060D01*
X-1484920Y686570D01*
X-1482800Y685930D01*
X-1480480Y685120D01*
X-1477300Y683840D01*
Y690270D01*
G01X-1490000Y776170D02*
X-1477300D01*
Y772150D01*
X-1477940Y770860D01*
X-1478780Y770060D01*
X-1480480Y769740D01*
X-1482170Y770060D01*
X-1483230Y771020D01*
X-1483860Y772150D01*
Y776170D01*
G01Y772150D02*
X-1490000Y769740D01*
G01X-1479420Y763060D02*
X-1478150Y762100D01*
X-1477510Y760970D01*
X-1477300Y759680D01*
X-1477720Y758070D01*
X-1478780Y756950D01*
X-1480050Y756630D01*
X-1481320Y756790D01*
X-1482380Y757430D01*
X-1484500Y760650D01*
X-1485980Y762100D01*
X-1488100Y763060D01*
X-1490000Y763380D01*
Y756630D01*
G01X-1487460Y750590D02*
X-1488940Y749630D01*
X-1489790Y748340D01*
X-1490000Y746890D01*
X-1489790Y745610D01*
X-1488730Y744320D01*
X-1487460Y743520D01*
X-1486190Y743360D01*
X-1484710Y743680D01*
X-1483650Y744800D01*
X-1483230Y745930D01*
Y747380D01*
G01Y745930D02*
X-1482590Y744960D01*
X-1481530Y744160D01*
X-1480260Y743840D01*
X-1478990Y744160D01*
X-1477940Y744960D01*
X-1477300Y746410D01*
X-1477510Y747860D01*
X-1478360Y749310D01*
G01X-1490000Y836170D02*
X-1477300D01*
Y832150D01*
X-1477940Y830860D01*
X-1478780Y830060D01*
X-1480480Y829740D01*
X-1482170Y830060D01*
X-1483230Y831020D01*
X-1483860Y832150D01*
Y836170D01*
G01Y832150D02*
X-1490000Y829740D01*
G01X-1479420Y823060D02*
X-1478150Y822100D01*
X-1477510Y820970D01*
X-1477300Y819680D01*
X-1477720Y818070D01*
X-1478780Y816950D01*
X-1480050Y816630D01*
X-1481320Y816790D01*
X-1482380Y817430D01*
X-1484500Y820650D01*
X-1485980Y822100D01*
X-1488100Y823060D01*
X-1490000Y823380D01*
Y816630D01*
G01Y807060D02*
X-1489790Y805930D01*
X-1489150Y804640D01*
X-1488100Y803840D01*
X-1486610Y803520D01*
X-1485130Y803840D01*
X-1483860Y804800D01*
X-1483230Y806250D01*
Y807860D01*
X-1482800Y808820D01*
X-1481750Y809630D01*
X-1480260Y809950D01*
X-1478780Y809470D01*
X-1477720Y808340D01*
X-1477300Y807060D01*
X-1477720Y805770D01*
X-1478780Y804640D01*
X-1480260Y804160D01*
X-1481750Y804480D01*
X-1482800Y805290D01*
X-1483230Y806250D01*
Y807860D01*
X-1483860Y809310D01*
X-1485130Y810270D01*
X-1486610Y810590D01*
X-1488100Y810270D01*
X-1489150Y809470D01*
X-1489790Y808180D01*
X-1490000Y807060D01*
G01X-1531180Y855000D02*
Y867700D01*
X-1527160D01*
X-1525870Y867060D01*
X-1525070Y866220D01*
X-1524750Y864520D01*
X-1525070Y862830D01*
X-1526030Y861770D01*
X-1527160Y861140D01*
X-1531180D01*
G01X-1527160D02*
X-1524750Y855000D01*
G01X-1518550Y857540D02*
X-1517590Y856060D01*
X-1516300Y855210D01*
X-1514850Y855000D01*
X-1513570Y855210D01*
X-1512280Y856270D01*
X-1511480Y857540D01*
X-1511320Y858810D01*
X-1511640Y860290D01*
X-1512760Y861350D01*
X-1513890Y861770D01*
X-1515340D01*
G01X-1513890D02*
X-1512920Y862410D01*
X-1512120Y863470D01*
X-1511800Y864740D01*
X-1512120Y866010D01*
X-1512920Y867060D01*
X-1514370Y867700D01*
X-1515820Y867490D01*
X-1517270Y866640D01*
G01X-1505600Y857540D02*
X-1504640Y856060D01*
X-1503350Y855210D01*
X-1501900Y855000D01*
X-1500620Y855210D01*
X-1499330Y856270D01*
X-1498530Y857540D01*
X-1498370Y858810D01*
X-1498690Y860290D01*
X-1499810Y861350D01*
X-1500940Y861770D01*
X-1502390D01*
G01X-1500940D02*
X-1499970Y862410D01*
X-1499170Y863470D01*
X-1498850Y864740D01*
X-1499170Y866010D01*
X-1499970Y867060D01*
X-1501420Y867700D01*
X-1502870Y867490D01*
X-1504320Y866640D01*
G01X-1551990Y987700D02*
X-1547970Y975000D01*
X-1543940Y987700D01*
G01X-1538550Y975000D02*
Y987700D01*
X-1535340D01*
X-1534050Y987060D01*
X-1533080Y986220D01*
X-1532280Y984950D01*
X-1531640Y983470D01*
X-1531480Y981350D01*
X-1531640Y979230D01*
X-1532280Y977750D01*
X-1533080Y976480D01*
X-1534050Y975630D01*
X-1535340Y975000D01*
X-1538550D01*
G01X-1525120Y980290D02*
X-1524000Y981770D01*
X-1523030Y982620D01*
X-1521740Y983040D01*
X-1520620Y982620D01*
X-1519810Y981770D01*
X-1519170Y980500D01*
X-1519010Y979020D01*
X-1519170Y977750D01*
X-1519810Y976480D01*
X-1520780Y975420D01*
X-1521900Y975000D01*
X-1523190Y975420D01*
X-1524320Y976690D01*
X-1524960Y978600D01*
X-1525120Y980710D01*
X-1524800Y983470D01*
X-1524320Y984950D01*
X-1523510Y986430D01*
X-1522390Y987490D01*
X-1521260Y987700D01*
X-1520130Y987280D01*
X-1519330Y986220D01*
G01X-1551990Y932700D02*
X-1547970Y920000D01*
X-1543940Y932700D01*
G01X-1538550Y920000D02*
Y932700D01*
X-1535340D01*
X-1534050Y932060D01*
X-1533080Y931220D01*
X-1532280Y929950D01*
X-1531640Y928470D01*
X-1531480Y926350D01*
X-1531640Y924230D01*
X-1532280Y922750D01*
X-1533080Y921480D01*
X-1534050Y920630D01*
X-1535340Y920000D01*
X-1538550D01*
G01X-1522390D02*
X-1522070Y922750D01*
X-1521580Y925080D01*
X-1520940Y927200D01*
X-1520130Y929520D01*
X-1518850Y932700D01*
X-1525280D01*
G01X-1537940Y961640D02*
X-1538900Y962280D01*
X-1540030Y962700D01*
X-1541310D01*
X-1542760Y962060D01*
X-1543890Y961010D01*
X-1544690Y959740D01*
X-1545340Y957620D01*
X-1545500Y955710D01*
X-1545170Y953810D01*
X-1544690Y952540D01*
X-1543730Y951270D01*
X-1542600Y950420D01*
X-1541480Y950000D01*
X-1540350D01*
X-1539220Y950420D01*
X-1538260Y951060D01*
X-1537450Y951900D01*
G01X-1531260Y951480D02*
X-1530130Y950420D01*
X-1528850Y950000D01*
X-1527560Y950420D01*
X-1526430Y951690D01*
X-1525630Y953600D01*
X-1525310Y955500D01*
Y957830D01*
X-1525630Y959740D01*
X-1526430Y961430D01*
X-1527400Y962280D01*
X-1528530Y962700D01*
X-1529810Y962280D01*
X-1530780Y961430D01*
X-1531420Y960160D01*
X-1531740Y958470D01*
X-1531420Y956990D01*
X-1530620Y955500D01*
X-1529650Y954660D01*
X-1528530Y954440D01*
X-1527240Y954870D01*
X-1526270Y955930D01*
X-1525310Y957830D01*
G01X-1551180Y1000000D02*
Y1012700D01*
X-1547160D01*
X-1545870Y1012060D01*
X-1545070Y1011220D01*
X-1544750Y1009520D01*
X-1545070Y1007830D01*
X-1546030Y1006770D01*
X-1547160Y1006140D01*
X-1551180D01*
G01X-1547160D02*
X-1544750Y1000000D01*
G01X-1538550Y1002540D02*
X-1537590Y1001060D01*
X-1536300Y1000210D01*
X-1534850Y1000000D01*
X-1533570Y1000210D01*
X-1532280Y1001270D01*
X-1531480Y1002540D01*
X-1531320Y1003810D01*
X-1531640Y1005290D01*
X-1532760Y1006350D01*
X-1533890Y1006770D01*
X-1535340D01*
G01X-1533890D02*
X-1532920Y1007410D01*
X-1532120Y1008470D01*
X-1531800Y1009740D01*
X-1532120Y1011010D01*
X-1532920Y1012060D01*
X-1534370Y1012700D01*
X-1535820Y1012490D01*
X-1537270Y1011640D01*
G01X-1525120Y1010580D02*
X-1524160Y1011850D01*
X-1523030Y1012490D01*
X-1521740Y1012700D01*
X-1520130Y1012280D01*
X-1519010Y1011220D01*
X-1518690Y1009950D01*
X-1518850Y1008680D01*
X-1519490Y1007620D01*
X-1522710Y1005500D01*
X-1524160Y1004020D01*
X-1525120Y1001900D01*
X-1525440Y1000000D01*
X-1518690D01*
G01X-1526180Y1075000D02*
Y1087700D01*
X-1522160D01*
X-1520870Y1087060D01*
X-1520070Y1086220D01*
X-1519750Y1084520D01*
X-1520070Y1082830D01*
X-1521030Y1081770D01*
X-1522160Y1081140D01*
X-1526180D01*
G01X-1522160D02*
X-1519750Y1075000D01*
G01X-1513550Y1077540D02*
X-1512590Y1076060D01*
X-1511300Y1075210D01*
X-1509850Y1075000D01*
X-1508570Y1075210D01*
X-1507280Y1076270D01*
X-1506480Y1077540D01*
X-1506320Y1078810D01*
X-1506640Y1080290D01*
X-1507760Y1081350D01*
X-1508890Y1081770D01*
X-1510340D01*
G01X-1508890D02*
X-1507920Y1082410D01*
X-1507120Y1083470D01*
X-1506800Y1084740D01*
X-1507120Y1086010D01*
X-1507920Y1087060D01*
X-1509370Y1087700D01*
X-1510820Y1087490D01*
X-1512270Y1086640D01*
G01X-1500600Y1076900D02*
X-1499640Y1075850D01*
X-1498510Y1075210D01*
X-1497070Y1075000D01*
X-1495620Y1075420D01*
X-1494490Y1076270D01*
X-1493690Y1077750D01*
X-1493530Y1079440D01*
X-1493850Y1081140D01*
X-1494650Y1082200D01*
X-1495780Y1083040D01*
X-1496900Y1083250D01*
X-1498030Y1083040D01*
X-1499480Y1082200D01*
X-1499000Y1087700D01*
X-1494650D01*
G01X-1479850Y1295000D02*
X-1473100Y1307700D01*
G01X-1479850D02*
X-1473100Y1295000D01*
G01X-1463530D02*
Y1307700D01*
X-1465460Y1305160D01*
G01Y1295000D02*
X-1461600D01*
G01X-1426180Y410000D02*
Y422700D01*
X-1422160D01*
X-1420870Y422060D01*
X-1420070Y421220D01*
X-1419750Y419520D01*
X-1420070Y417830D01*
X-1421030Y416770D01*
X-1422160Y416140D01*
X-1426180D01*
G01X-1422160D02*
X-1419750Y410000D01*
G01X-1413550Y412540D02*
X-1412590Y411060D01*
X-1411300Y410210D01*
X-1409850Y410000D01*
X-1408570Y410210D01*
X-1407280Y411270D01*
X-1406480Y412540D01*
X-1406320Y413810D01*
X-1406640Y415290D01*
X-1407760Y416350D01*
X-1408890Y416770D01*
X-1410340D01*
G01X-1408890D02*
X-1407920Y417410D01*
X-1407120Y418470D01*
X-1406800Y419740D01*
X-1407120Y421010D01*
X-1407920Y422060D01*
X-1409370Y422700D01*
X-1410820Y422490D01*
X-1412270Y421640D01*
G01X-1399800Y411480D02*
X-1398670Y410420D01*
X-1397390Y410000D01*
X-1396100Y410420D01*
X-1394970Y411690D01*
X-1394170Y413600D01*
X-1393850Y415500D01*
Y417830D01*
X-1394170Y419740D01*
X-1394970Y421430D01*
X-1395940Y422280D01*
X-1397070Y422700D01*
X-1398350Y422280D01*
X-1399320Y421430D01*
X-1399960Y420160D01*
X-1400280Y418470D01*
X-1399960Y416990D01*
X-1399160Y415500D01*
X-1398190Y414660D01*
X-1397070Y414440D01*
X-1395780Y414870D01*
X-1394810Y415930D01*
X-1393850Y417830D01*
G01X-1426180Y470000D02*
Y482700D01*
X-1422160D01*
X-1420870Y482060D01*
X-1420070Y481220D01*
X-1419750Y479520D01*
X-1420070Y477830D01*
X-1421030Y476770D01*
X-1422160Y476140D01*
X-1426180D01*
G01X-1422160D02*
X-1419750Y470000D01*
G01X-1413550Y472540D02*
X-1412590Y471060D01*
X-1411300Y470210D01*
X-1409850Y470000D01*
X-1408570Y470210D01*
X-1407280Y471270D01*
X-1406480Y472540D01*
X-1406320Y473810D01*
X-1406640Y475290D01*
X-1407760Y476350D01*
X-1408890Y476770D01*
X-1410340D01*
G01X-1408890D02*
X-1407920Y477410D01*
X-1407120Y478470D01*
X-1406800Y479740D01*
X-1407120Y481010D01*
X-1407920Y482060D01*
X-1409370Y482700D01*
X-1410820Y482490D01*
X-1412270Y481640D01*
G01X-1397390Y470000D02*
X-1397070Y472750D01*
X-1396580Y475080D01*
X-1395940Y477200D01*
X-1395130Y479520D01*
X-1393850Y482700D01*
X-1400280D01*
G01X-1421990Y547700D02*
X-1417970Y535000D01*
X-1413940Y547700D01*
G01X-1408550Y535000D02*
Y547700D01*
X-1405340D01*
X-1404050Y547060D01*
X-1403080Y546220D01*
X-1402280Y544950D01*
X-1401640Y543470D01*
X-1401480Y541350D01*
X-1401640Y539230D01*
X-1402280Y537750D01*
X-1403080Y536480D01*
X-1404050Y535630D01*
X-1405340Y535000D01*
X-1408550D01*
G01X-1390130D02*
Y547700D01*
X-1396090Y538600D01*
X-1388040D01*
G01X-1421990Y627700D02*
X-1417970Y615000D01*
X-1413940Y627700D01*
G01X-1408550Y615000D02*
Y627700D01*
X-1405340D01*
X-1404050Y627060D01*
X-1403080Y626220D01*
X-1402280Y624950D01*
X-1401640Y623470D01*
X-1401480Y621350D01*
X-1401640Y619230D01*
X-1402280Y617750D01*
X-1403080Y616480D01*
X-1404050Y615630D01*
X-1405340Y615000D01*
X-1408550D01*
G01X-1395600Y617540D02*
X-1394640Y616060D01*
X-1393350Y615210D01*
X-1391900Y615000D01*
X-1390620Y615210D01*
X-1389330Y616270D01*
X-1388530Y617540D01*
X-1388370Y618810D01*
X-1388690Y620290D01*
X-1389810Y621350D01*
X-1390940Y621770D01*
X-1392390D01*
G01X-1390940D02*
X-1389970Y622410D01*
X-1389170Y623470D01*
X-1388850Y624740D01*
X-1389170Y626010D01*
X-1389970Y627060D01*
X-1391420Y627700D01*
X-1392870Y627490D01*
X-1394320Y626640D01*
G01X-1430000Y716170D02*
X-1417300D01*
Y712150D01*
X-1417940Y710860D01*
X-1418780Y710060D01*
X-1420480Y709740D01*
X-1422170Y710060D01*
X-1423230Y711020D01*
X-1423860Y712150D01*
Y716170D01*
G01Y712150D02*
X-1430000Y709740D01*
G01X-1419420Y703060D02*
X-1418150Y702100D01*
X-1417510Y700970D01*
X-1417300Y699680D01*
X-1417720Y698070D01*
X-1418780Y696950D01*
X-1420050Y696630D01*
X-1421320Y696790D01*
X-1422380Y697430D01*
X-1424500Y700650D01*
X-1425980Y702100D01*
X-1428100Y703060D01*
X-1430000Y703380D01*
Y696630D01*
G01X-1417300Y687060D02*
X-1417720Y688340D01*
X-1418780Y689310D01*
X-1420050Y689950D01*
X-1421750Y690430D01*
X-1423650Y690590D01*
X-1425560Y690430D01*
X-1427250Y689950D01*
X-1428520Y689310D01*
X-1429580Y688340D01*
X-1430000Y687060D01*
X-1429580Y685770D01*
X-1428520Y684800D01*
X-1427250Y684160D01*
X-1425560Y683680D01*
X-1423650Y683520D01*
X-1421750Y683680D01*
X-1420050Y684160D01*
X-1418780Y684800D01*
X-1417720Y685770D01*
X-1417300Y687060D01*
G01X-1430000Y776170D02*
X-1417300D01*
Y772150D01*
X-1417940Y770860D01*
X-1418780Y770060D01*
X-1420480Y769740D01*
X-1422170Y770060D01*
X-1423230Y771020D01*
X-1423860Y772150D01*
Y776170D01*
G01Y772150D02*
X-1430000Y769740D01*
G01X-1419420Y763060D02*
X-1418150Y762100D01*
X-1417510Y760970D01*
X-1417300Y759680D01*
X-1417720Y758070D01*
X-1418780Y756950D01*
X-1420050Y756630D01*
X-1421320Y756790D01*
X-1422380Y757430D01*
X-1424500Y760650D01*
X-1425980Y762100D01*
X-1428100Y763060D01*
X-1430000Y763380D01*
Y756630D01*
G01X-1428100Y750590D02*
X-1429150Y749630D01*
X-1429790Y748500D01*
X-1430000Y747060D01*
X-1429580Y745610D01*
X-1428730Y744480D01*
X-1427250Y743680D01*
X-1425560Y743520D01*
X-1423860Y743840D01*
X-1422800Y744640D01*
X-1421960Y745770D01*
X-1421750Y746890D01*
X-1421960Y748020D01*
X-1422800Y749470D01*
X-1417300Y748990D01*
Y744640D01*
G01X-1430000Y836170D02*
X-1417300D01*
Y832150D01*
X-1417940Y830860D01*
X-1418780Y830060D01*
X-1420480Y829740D01*
X-1422170Y830060D01*
X-1423230Y831020D01*
X-1423860Y832150D01*
Y836170D01*
G01Y832150D02*
X-1430000Y829740D01*
G01X-1427460Y823540D02*
X-1428940Y822580D01*
X-1429790Y821290D01*
X-1430000Y819840D01*
X-1429790Y818560D01*
X-1428730Y817270D01*
X-1427460Y816470D01*
X-1426190Y816310D01*
X-1424710Y816630D01*
X-1423650Y817750D01*
X-1423230Y818880D01*
Y820330D01*
G01Y818880D02*
X-1422590Y817910D01*
X-1421530Y817110D01*
X-1420260Y816790D01*
X-1418990Y817110D01*
X-1417940Y817910D01*
X-1417300Y819360D01*
X-1417510Y820810D01*
X-1418360Y822260D01*
G01X-1430000Y807060D02*
X-1417300D01*
X-1419840Y808990D01*
G01X-1430000D02*
Y805130D01*
G01X-1471180Y855000D02*
Y867700D01*
X-1467160D01*
X-1465870Y867060D01*
X-1465070Y866220D01*
X-1464750Y864520D01*
X-1465070Y862830D01*
X-1466030Y861770D01*
X-1467160Y861140D01*
X-1471180D01*
G01X-1467160D02*
X-1464750Y855000D01*
G01X-1458550Y857540D02*
X-1457590Y856060D01*
X-1456300Y855210D01*
X-1454850Y855000D01*
X-1453570Y855210D01*
X-1452280Y856270D01*
X-1451480Y857540D01*
X-1451320Y858810D01*
X-1451640Y860290D01*
X-1452760Y861350D01*
X-1453890Y861770D01*
X-1455340D01*
G01X-1453890D02*
X-1452920Y862410D01*
X-1452120Y863470D01*
X-1451800Y864740D01*
X-1452120Y866010D01*
X-1452920Y867060D01*
X-1454370Y867700D01*
X-1455820Y867490D01*
X-1457270Y866640D01*
G01X-1440130Y855000D02*
Y867700D01*
X-1446090Y858600D01*
X-1438040D01*
G01X-1415000Y911490D02*
X-1402300D01*
Y908280D01*
X-1402940Y906990D01*
X-1403780Y906020D01*
X-1405050Y905220D01*
X-1406530Y904580D01*
X-1408650Y904420D01*
X-1410770Y904580D01*
X-1412250Y905220D01*
X-1413520Y906020D01*
X-1414370Y906990D01*
X-1415000Y908280D01*
Y911490D01*
G01Y899030D02*
X-1402300Y895010D01*
X-1415000Y890980D01*
G01X-1410560Y892430D02*
Y897580D01*
G01X-1415000Y882060D02*
X-1402300D01*
X-1404840Y883990D01*
G01X-1415000D02*
Y880130D01*
G01X-1426990Y1062700D02*
X-1422970Y1050000D01*
X-1418940Y1062700D01*
G01X-1413550Y1050000D02*
Y1062700D01*
X-1410340D01*
X-1409050Y1062060D01*
X-1408080Y1061220D01*
X-1407280Y1059950D01*
X-1406640Y1058470D01*
X-1406480Y1056350D01*
X-1406640Y1054230D01*
X-1407280Y1052750D01*
X-1408080Y1051480D01*
X-1409050Y1050630D01*
X-1410340Y1050000D01*
X-1413550D01*
G01X-1397070D02*
X-1395940Y1050210D01*
X-1394650Y1050850D01*
X-1393850Y1051900D01*
X-1393530Y1053390D01*
X-1393850Y1054870D01*
X-1394810Y1056140D01*
X-1396260Y1056770D01*
X-1397870D01*
X-1398830Y1057200D01*
X-1399640Y1058250D01*
X-1399960Y1059740D01*
X-1399480Y1061220D01*
X-1398350Y1062280D01*
X-1397070Y1062700D01*
X-1395780Y1062280D01*
X-1394650Y1061220D01*
X-1394170Y1059740D01*
X-1394490Y1058250D01*
X-1395300Y1057200D01*
X-1396260Y1056770D01*
X-1397870D01*
X-1399320Y1056140D01*
X-1400280Y1054870D01*
X-1400600Y1053390D01*
X-1400280Y1051900D01*
X-1399480Y1050850D01*
X-1398190Y1050210D01*
X-1397070Y1050000D01*
G01X-1452940Y1021640D02*
X-1453900Y1022280D01*
X-1455030Y1022700D01*
X-1456310D01*
X-1457760Y1022060D01*
X-1458890Y1021010D01*
X-1459690Y1019740D01*
X-1460340Y1017620D01*
X-1460500Y1015710D01*
X-1460170Y1013810D01*
X-1459690Y1012540D01*
X-1458730Y1011270D01*
X-1457600Y1010420D01*
X-1456480Y1010000D01*
X-1455350D01*
X-1454220Y1010420D01*
X-1453260Y1011060D01*
X-1452450Y1011900D01*
G01X-1443850Y1010000D02*
X-1443530Y1012750D01*
X-1443040Y1015080D01*
X-1442400Y1017200D01*
X-1441590Y1019520D01*
X-1440310Y1022700D01*
X-1446740D01*
G01X-1412940Y1031640D02*
X-1413900Y1032280D01*
X-1415030Y1032700D01*
X-1416310D01*
X-1417760Y1032060D01*
X-1418890Y1031010D01*
X-1419690Y1029740D01*
X-1420340Y1027620D01*
X-1420500Y1025710D01*
X-1420170Y1023810D01*
X-1419690Y1022540D01*
X-1418730Y1021270D01*
X-1417600Y1020420D01*
X-1416480Y1020000D01*
X-1415350D01*
X-1414220Y1020420D01*
X-1413260Y1021060D01*
X-1412450Y1021900D01*
G01X-1403530Y1020000D02*
X-1402400Y1020210D01*
X-1401110Y1020850D01*
X-1400310Y1021900D01*
X-1399990Y1023390D01*
X-1400310Y1024870D01*
X-1401270Y1026140D01*
X-1402720Y1026770D01*
X-1404330D01*
X-1405290Y1027200D01*
X-1406100Y1028250D01*
X-1406420Y1029740D01*
X-1405940Y1031220D01*
X-1404810Y1032280D01*
X-1403530Y1032700D01*
X-1402240Y1032280D01*
X-1401110Y1031220D01*
X-1400630Y1029740D01*
X-1400950Y1028250D01*
X-1401760Y1027200D01*
X-1402720Y1026770D01*
X-1404330D01*
X-1405780Y1026140D01*
X-1406740Y1024870D01*
X-1407060Y1023390D01*
X-1406740Y1021900D01*
X-1405940Y1020850D01*
X-1404650Y1020210D01*
X-1403530Y1020000D01*
G01X-1370000Y716170D02*
X-1357300D01*
Y712150D01*
X-1357940Y710860D01*
X-1358780Y710060D01*
X-1360480Y709740D01*
X-1362170Y710060D01*
X-1363230Y711020D01*
X-1363860Y712150D01*
Y716170D01*
G01Y712150D02*
X-1370000Y709740D01*
G01Y700010D02*
X-1357300D01*
X-1359840Y701940D01*
G01X-1370000D02*
Y698080D01*
G01Y687060D02*
X-1369790Y685930D01*
X-1369150Y684640D01*
X-1368100Y683840D01*
X-1366610Y683520D01*
X-1365130Y683840D01*
X-1363860Y684800D01*
X-1363230Y686250D01*
Y687860D01*
X-1362800Y688820D01*
X-1361750Y689630D01*
X-1360260Y689950D01*
X-1358780Y689470D01*
X-1357720Y688340D01*
X-1357300Y687060D01*
X-1357720Y685770D01*
X-1358780Y684640D01*
X-1360260Y684160D01*
X-1361750Y684480D01*
X-1362800Y685290D01*
X-1363230Y686250D01*
Y687860D01*
X-1363860Y689310D01*
X-1365130Y690270D01*
X-1366610Y690590D01*
X-1368100Y690270D01*
X-1369150Y689470D01*
X-1369790Y688180D01*
X-1370000Y687060D01*
G01Y776170D02*
X-1357300D01*
Y772150D01*
X-1357940Y770860D01*
X-1358780Y770060D01*
X-1360480Y769740D01*
X-1362170Y770060D01*
X-1363230Y771020D01*
X-1363860Y772150D01*
Y776170D01*
G01Y772150D02*
X-1370000Y769740D01*
G01X-1359420Y763060D02*
X-1358150Y762100D01*
X-1357510Y760970D01*
X-1357300Y759680D01*
X-1357720Y758070D01*
X-1358780Y756950D01*
X-1360050Y756630D01*
X-1361320Y756790D01*
X-1362380Y757430D01*
X-1364500Y760650D01*
X-1365980Y762100D01*
X-1368100Y763060D01*
X-1370000Y763380D01*
Y756630D01*
G01Y745120D02*
X-1357300D01*
X-1366400Y751080D01*
Y743030D01*
G01X-1370000Y836170D02*
X-1357300D01*
Y832150D01*
X-1357940Y830860D01*
X-1358780Y830060D01*
X-1360480Y829740D01*
X-1362170Y830060D01*
X-1363230Y831020D01*
X-1363860Y832150D01*
Y836170D01*
G01Y832150D02*
X-1370000Y829740D01*
G01X-1359420Y823060D02*
X-1358150Y822100D01*
X-1357510Y820970D01*
X-1357300Y819680D01*
X-1357720Y818070D01*
X-1358780Y816950D01*
X-1360050Y816630D01*
X-1361320Y816790D01*
X-1362380Y817430D01*
X-1364500Y820650D01*
X-1365980Y822100D01*
X-1368100Y823060D01*
X-1370000Y823380D01*
Y816630D01*
G01X-1368520Y809790D02*
X-1369580Y808660D01*
X-1370000Y807380D01*
X-1369580Y806090D01*
X-1368310Y804960D01*
X-1366400Y804160D01*
X-1364500Y803840D01*
X-1362170D01*
X-1360260Y804160D01*
X-1358570Y804960D01*
X-1357720Y805930D01*
X-1357300Y807060D01*
X-1357720Y808340D01*
X-1358570Y809310D01*
X-1359840Y809950D01*
X-1361530Y810270D01*
X-1363010Y809950D01*
X-1364500Y809150D01*
X-1365340Y808180D01*
X-1365560Y807060D01*
X-1365130Y805770D01*
X-1364070Y804800D01*
X-1362170Y803840D01*
G01X-1366180Y900000D02*
Y912700D01*
X-1362160D01*
X-1360870Y912060D01*
X-1360070Y911220D01*
X-1359750Y909520D01*
X-1360070Y907830D01*
X-1361030Y906770D01*
X-1362160Y906140D01*
X-1366180D01*
G01X-1362160D02*
X-1359750Y900000D01*
G01X-1353550Y902540D02*
X-1352590Y901060D01*
X-1351300Y900210D01*
X-1349850Y900000D01*
X-1348570Y900210D01*
X-1347280Y901270D01*
X-1346480Y902540D01*
X-1346320Y903810D01*
X-1346640Y905290D01*
X-1347760Y906350D01*
X-1348890Y906770D01*
X-1350340D01*
G01X-1348890D02*
X-1347920Y907410D01*
X-1347120Y908470D01*
X-1346800Y909740D01*
X-1347120Y911010D01*
X-1347920Y912060D01*
X-1349370Y912700D01*
X-1350820Y912490D01*
X-1352270Y911640D01*
G01X-1337070Y912700D02*
X-1338350Y912280D01*
X-1339320Y911220D01*
X-1339960Y909950D01*
X-1340440Y908250D01*
X-1340600Y906350D01*
X-1340440Y904440D01*
X-1339960Y902750D01*
X-1339320Y901480D01*
X-1338350Y900420D01*
X-1337070Y900000D01*
X-1335780Y900420D01*
X-1334810Y901480D01*
X-1334170Y902750D01*
X-1333690Y904440D01*
X-1333530Y906350D01*
X-1333690Y908250D01*
X-1334170Y909950D01*
X-1334810Y911220D01*
X-1335780Y912280D01*
X-1337070Y912700D01*
G01X-1366180Y960000D02*
Y972700D01*
X-1362160D01*
X-1360870Y972060D01*
X-1360070Y971220D01*
X-1359750Y969520D01*
X-1360070Y967830D01*
X-1361030Y966770D01*
X-1362160Y966140D01*
X-1366180D01*
G01X-1362160D02*
X-1359750Y960000D01*
G01X-1350020D02*
Y972700D01*
X-1351950Y970160D01*
G01Y960000D02*
X-1348090D01*
G01X-1339800Y961480D02*
X-1338670Y960420D01*
X-1337390Y960000D01*
X-1336100Y960420D01*
X-1334970Y961690D01*
X-1334170Y963600D01*
X-1333850Y965500D01*
Y967830D01*
X-1334170Y969740D01*
X-1334970Y971430D01*
X-1335940Y972280D01*
X-1337070Y972700D01*
X-1338350Y972280D01*
X-1339320Y971430D01*
X-1339960Y970160D01*
X-1340280Y968470D01*
X-1339960Y966990D01*
X-1339160Y965500D01*
X-1338190Y964660D01*
X-1337070Y964440D01*
X-1335780Y964870D01*
X-1334810Y965930D01*
X-1333850Y967830D01*
G01X-1381990Y1197700D02*
X-1377970Y1185000D01*
X-1373940Y1197700D01*
G01X-1365020D02*
Y1185000D01*
G01X-1368710Y1197700D02*
X-1361320D01*
G01X-1352070Y1185000D02*
Y1197700D01*
X-1354000Y1195160D01*
G01Y1185000D02*
X-1350140D01*
G01X-1122940Y326640D02*
X-1123900Y327280D01*
X-1125030Y327700D01*
X-1126310D01*
X-1127760Y327060D01*
X-1128890Y326010D01*
X-1129690Y324740D01*
X-1130340Y322620D01*
X-1130500Y320710D01*
X-1130170Y318810D01*
X-1129690Y317540D01*
X-1128730Y316270D01*
X-1127600Y315420D01*
X-1126480Y315000D01*
X-1125350D01*
X-1124220Y315420D01*
X-1123260Y316060D01*
X-1122450Y316900D01*
G01X-1117060Y317540D02*
X-1116100Y316060D01*
X-1114810Y315210D01*
X-1113360Y315000D01*
X-1112080Y315210D01*
X-1110790Y316270D01*
X-1109990Y317540D01*
X-1109830Y318810D01*
X-1110150Y320290D01*
X-1111270Y321350D01*
X-1112400Y321770D01*
X-1113850D01*
G01X-1112400D02*
X-1111430Y322410D01*
X-1110630Y323470D01*
X-1110310Y324740D01*
X-1110630Y326010D01*
X-1111430Y327060D01*
X-1112880Y327700D01*
X-1114330Y327490D01*
X-1115780Y326640D01*
G01X-752940D02*
X-753900Y327280D01*
X-755030Y327700D01*
X-756310D01*
X-757760Y327060D01*
X-758890Y326010D01*
X-759690Y324740D01*
X-760340Y322620D01*
X-760500Y320710D01*
X-760170Y318810D01*
X-759690Y317540D01*
X-758730Y316270D01*
X-757600Y315420D01*
X-756480Y315000D01*
X-755350D01*
X-754220Y315420D01*
X-753260Y316060D01*
X-752450Y316900D01*
G01X-746580Y325580D02*
X-745620Y326850D01*
X-744490Y327490D01*
X-743200Y327700D01*
X-741590Y327280D01*
X-740470Y326220D01*
X-740150Y324950D01*
X-740310Y323680D01*
X-740950Y322620D01*
X-744170Y320500D01*
X-745620Y319020D01*
X-746580Y316900D01*
X-746900Y315000D01*
X-740150D01*
G01X-443300Y1289710D02*
X-452400D01*
X-454310Y1289070D01*
X-455580Y1287780D01*
X-456000Y1286180D01*
X-455580Y1284570D01*
X-454310Y1283280D01*
X-452400Y1282640D01*
X-443300D01*
G01X-449650Y1272260D02*
Y1269040D01*
X-453460D01*
X-454730Y1270010D01*
X-455580Y1271130D01*
X-456000Y1272740D01*
X-455580Y1274350D01*
X-454730Y1275480D01*
X-453460Y1276440D01*
X-451980Y1277090D01*
X-450290Y1277410D01*
X-448800D01*
X-447530Y1277090D01*
X-446050Y1276440D01*
X-444780Y1275480D01*
X-443940Y1274510D01*
X-443300Y1273230D01*
Y1272100D01*
X-443720Y1270810D01*
X-444570Y1269850D01*
G01X-456000Y1260280D02*
X-443300D01*
X-445840Y1262210D01*
G01X-456000D02*
Y1258350D01*
G01X-382940Y326640D02*
X-383900Y327280D01*
X-385030Y327700D01*
X-386310D01*
X-387760Y327060D01*
X-388890Y326010D01*
X-389690Y324740D01*
X-390340Y322620D01*
X-390500Y320710D01*
X-390170Y318810D01*
X-389690Y317540D01*
X-388730Y316270D01*
X-387600Y315420D01*
X-386480Y315000D01*
X-385350D01*
X-384220Y315420D01*
X-383260Y316060D01*
X-382450Y316900D01*
G01X-371590Y315000D02*
Y327700D01*
X-377550Y318600D01*
X-369500D01*
G01X-387940Y681640D02*
X-388900Y682280D01*
X-390030Y682700D01*
X-391310D01*
X-392760Y682060D01*
X-393890Y681010D01*
X-394690Y679740D01*
X-395340Y677620D01*
X-395500Y675710D01*
X-395170Y673810D01*
X-394690Y672540D01*
X-393730Y671270D01*
X-392600Y670420D01*
X-391480Y670000D01*
X-390350D01*
X-389220Y670420D01*
X-388260Y671060D01*
X-387450Y671900D01*
G01X-381580Y675290D02*
X-380460Y676770D01*
X-379490Y677620D01*
X-378200Y678040D01*
X-377080Y677620D01*
X-376270Y676770D01*
X-375630Y675500D01*
X-375470Y674020D01*
X-375630Y672750D01*
X-376270Y671480D01*
X-377240Y670420D01*
X-378360Y670000D01*
X-379650Y670420D01*
X-380780Y671690D01*
X-381420Y673600D01*
X-381580Y675710D01*
X-381260Y678470D01*
X-380780Y679950D01*
X-379970Y681430D01*
X-378850Y682490D01*
X-377720Y682700D01*
X-376590Y682280D01*
X-375790Y681220D01*
G01X-344180Y809000D02*
Y821700D01*
X-340160D01*
X-338870Y821060D01*
X-338070Y820220D01*
X-337750Y818520D01*
X-338070Y816830D01*
X-339030Y815770D01*
X-340160Y815140D01*
X-344180D01*
G01X-340160D02*
X-337750Y809000D01*
G01X-326080D02*
Y821700D01*
X-332040Y812600D01*
X-323990D01*
G01X-318120Y819580D02*
X-317160Y820850D01*
X-316030Y821490D01*
X-314740Y821700D01*
X-313130Y821280D01*
X-312010Y820220D01*
X-311690Y818950D01*
X-311850Y817680D01*
X-312490Y816620D01*
X-315710Y814500D01*
X-317160Y813020D01*
X-318120Y810900D01*
X-318440Y809000D01*
X-311690D01*
G01X-392940Y1231640D02*
X-393900Y1232280D01*
X-395030Y1232700D01*
X-396310D01*
X-397760Y1232060D01*
X-398890Y1231010D01*
X-399690Y1229740D01*
X-400340Y1227620D01*
X-400500Y1225710D01*
X-400170Y1223810D01*
X-399690Y1222540D01*
X-398730Y1221270D01*
X-397600Y1220420D01*
X-396480Y1220000D01*
X-395350D01*
X-394220Y1220420D01*
X-393260Y1221060D01*
X-392450Y1221900D01*
G01X-383530Y1220000D02*
Y1232700D01*
X-385460Y1230160D01*
G01Y1220000D02*
X-381600D01*
G01X-360500Y1335000D02*
X-360180Y1337750D01*
X-359690Y1340080D01*
X-359050Y1342200D01*
X-358240Y1344520D01*
X-356960Y1347700D01*
X-363390D01*
G01X-360180Y1395000D02*
X-359050Y1395210D01*
X-357760Y1395850D01*
X-356960Y1396900D01*
X-356640Y1398390D01*
X-356960Y1399870D01*
X-357920Y1401140D01*
X-359370Y1401770D01*
X-360980D01*
X-361940Y1402200D01*
X-362750Y1403250D01*
X-363070Y1404740D01*
X-362590Y1406220D01*
X-361460Y1407280D01*
X-360180Y1407700D01*
X-358890Y1407280D01*
X-357760Y1406220D01*
X-357280Y1404740D01*
X-357600Y1403250D01*
X-358410Y1402200D01*
X-359370Y1401770D01*
X-360980D01*
X-362430Y1401140D01*
X-363390Y1399870D01*
X-363710Y1398390D01*
X-363390Y1396900D01*
X-362590Y1395850D01*
X-361300Y1395210D01*
X-360180Y1395000D01*
G01X-355000Y1922960D02*
X-334680D01*
Y1916860D01*
X-335700Y1914830D01*
X-338070Y1913310D01*
X-340780Y1912800D01*
X-343490Y1913310D01*
X-345520Y1914580D01*
X-346530Y1916860D01*
Y1922960D01*
G01X-344160Y1895530D02*
X-343150Y1894510D01*
X-341450Y1893750D01*
X-339080Y1893240D01*
X-337050Y1893750D01*
X-335700Y1894770D01*
X-334680Y1896540D01*
Y1903400D01*
X-355000D01*
Y1895020D01*
X-353650Y1893240D01*
X-351610Y1892230D01*
X-349240Y1891720D01*
X-346870Y1892230D01*
X-344840Y1893750D01*
X-344160Y1895530D01*
Y1903400D01*
G01X-355000Y1882830D02*
X-334680D01*
G01Y1873180D02*
X-347210Y1882830D01*
G01X-355000Y1871650D02*
X-341450Y1878510D01*
G01X-355000Y1863520D02*
X-334680D01*
X-351610Y1856920D01*
X-334680Y1850320D01*
X-355000D01*
G01X-355680Y1836600D02*
X-355340Y1837110D01*
X-354660D01*
X-354320Y1836600D01*
X-354660Y1836090D01*
X-355340D01*
X-355680Y1836600D01*
G01X-355000Y1813230D02*
X-334680D01*
X-349240Y1822630D01*
Y1809930D01*
G01X-338070Y1800790D02*
X-336030Y1799260D01*
X-335020Y1797480D01*
X-334680Y1795450D01*
X-335360Y1792910D01*
X-337050Y1791130D01*
X-339080Y1790630D01*
X-341120Y1790880D01*
X-342810Y1791900D01*
X-346190Y1796980D01*
X-348570Y1799260D01*
X-351950Y1800790D01*
X-355000Y1801290D01*
Y1790630D01*
G01X-346530Y1780470D02*
X-344160Y1778690D01*
X-342810Y1777160D01*
X-342130Y1775130D01*
X-342810Y1773350D01*
X-344160Y1772080D01*
X-346190Y1771070D01*
X-348570Y1770810D01*
X-350600Y1771070D01*
X-352630Y1772080D01*
X-354320Y1773610D01*
X-355000Y1775390D01*
X-354320Y1777420D01*
X-352290Y1779200D01*
X-349240Y1780210D01*
X-345860Y1780470D01*
X-341450Y1779960D01*
X-339080Y1779200D01*
X-336710Y1777930D01*
X-335020Y1776150D01*
X-334680Y1774370D01*
X-335360Y1772590D01*
X-337050Y1771320D01*
G01X-355000Y1752270D02*
X-334680D01*
X-349240Y1761670D01*
Y1748970D01*
G01X-352630Y1739320D02*
X-354320Y1737540D01*
X-355000Y1735510D01*
X-354320Y1733480D01*
X-352290Y1731700D01*
X-349240Y1730430D01*
X-346190Y1729920D01*
X-342470D01*
X-339420Y1730430D01*
X-336710Y1731700D01*
X-335360Y1733220D01*
X-334680Y1735000D01*
X-335360Y1737030D01*
X-336710Y1738560D01*
X-338740Y1739570D01*
X-341450Y1740080D01*
X-343820Y1739570D01*
X-346190Y1738300D01*
X-347550Y1736780D01*
X-347890Y1735000D01*
X-347210Y1732970D01*
X-345520Y1731440D01*
X-342470Y1729920D01*
G01X-352630Y1719000D02*
X-354320Y1717220D01*
X-355000Y1715190D01*
X-354320Y1713160D01*
X-352290Y1711380D01*
X-349240Y1710110D01*
X-346190Y1709600D01*
X-342470D01*
X-339420Y1710110D01*
X-336710Y1711380D01*
X-335360Y1712900D01*
X-334680Y1714680D01*
X-335360Y1716710D01*
X-336710Y1718240D01*
X-338740Y1719250D01*
X-341450Y1719760D01*
X-343820Y1719250D01*
X-346190Y1717980D01*
X-347550Y1716460D01*
X-347890Y1714680D01*
X-347210Y1712650D01*
X-345520Y1711120D01*
X-342470Y1709600D01*
G01X-355680Y1694360D02*
X-355340Y1694870D01*
X-354660D01*
X-354320Y1694360D01*
X-354660Y1693850D01*
X-355340D01*
X-355680Y1694360D01*
G01X-334680Y1674040D02*
X-335360Y1676070D01*
X-337050Y1677600D01*
X-339080Y1678610D01*
X-341790Y1679370D01*
X-344840Y1679630D01*
X-347890Y1679370D01*
X-350600Y1678610D01*
X-352630Y1677600D01*
X-354320Y1676070D01*
X-355000Y1674040D01*
X-354320Y1672010D01*
X-352630Y1670480D01*
X-350600Y1669470D01*
X-347890Y1668710D01*
X-344840Y1668450D01*
X-341790Y1668710D01*
X-339080Y1669470D01*
X-337050Y1670480D01*
X-335360Y1672010D01*
X-334680Y1674040D01*
G01Y1653720D02*
X-335360Y1655750D01*
X-337050Y1657280D01*
X-339080Y1658290D01*
X-341790Y1659050D01*
X-344840Y1659310D01*
X-347890Y1659050D01*
X-350600Y1658290D01*
X-352630Y1657280D01*
X-354320Y1655750D01*
X-355000Y1653720D01*
X-354320Y1651690D01*
X-352630Y1650160D01*
X-350600Y1649150D01*
X-347890Y1648390D01*
X-344840Y1648130D01*
X-341790Y1648390D01*
X-339080Y1649150D01*
X-337050Y1650160D01*
X-335360Y1651690D01*
X-334680Y1653720D01*
G01X-355000Y1633400D02*
X-334680D01*
X-338740Y1636450D01*
G01X-355000D02*
Y1630350D01*
G01X-348230Y1616380D02*
Y1609780D01*
G01X-334680Y1592760D02*
X-335360Y1594790D01*
X-337050Y1596320D01*
X-339080Y1597330D01*
X-341790Y1598090D01*
X-344840Y1598350D01*
X-347890Y1598090D01*
X-350600Y1597330D01*
X-352630Y1596320D01*
X-354320Y1594790D01*
X-355000Y1592760D01*
X-354320Y1590730D01*
X-352630Y1589200D01*
X-350600Y1588190D01*
X-347890Y1587430D01*
X-344840Y1587170D01*
X-341790Y1587430D01*
X-339080Y1588190D01*
X-337050Y1589200D01*
X-335360Y1590730D01*
X-334680Y1592760D01*
G01X-350940Y1578030D02*
X-353310Y1576500D01*
X-354660Y1574470D01*
X-355000Y1572190D01*
X-354660Y1570150D01*
X-352970Y1568120D01*
X-350940Y1566850D01*
X-348900Y1566600D01*
X-346530Y1567110D01*
X-344840Y1568880D01*
X-344160Y1570660D01*
Y1572950D01*
G01Y1570660D02*
X-343150Y1569140D01*
X-341450Y1567870D01*
X-339420Y1567360D01*
X-337390Y1567870D01*
X-335700Y1569140D01*
X-334680Y1571420D01*
X-335020Y1573710D01*
X-336370Y1576000D01*
G01X-338070Y1556950D02*
X-336030Y1555420D01*
X-335020Y1553640D01*
X-334680Y1551610D01*
X-335360Y1549070D01*
X-337050Y1547290D01*
X-339080Y1546790D01*
X-341120Y1547040D01*
X-342810Y1548060D01*
X-346190Y1553140D01*
X-348570Y1555420D01*
X-351950Y1556950D01*
X-355000Y1557450D01*
Y1546790D01*
G01X-374160Y1914090D02*
X-373150Y1913070D01*
X-371450Y1912310D01*
X-369080Y1911800D01*
X-367050Y1912310D01*
X-365700Y1913330D01*
X-364680Y1915100D01*
Y1921960D01*
X-385000D01*
Y1913580D01*
X-383650Y1911800D01*
X-381610Y1910790D01*
X-379240Y1910280D01*
X-376870Y1910790D01*
X-374840Y1912310D01*
X-374160Y1914090D01*
Y1921960D01*
G01X-385000Y1900880D02*
X-364680D01*
Y1894780D01*
X-365700Y1892750D01*
X-368070Y1891230D01*
X-370780Y1890720D01*
X-373490Y1891230D01*
X-375520Y1892500D01*
X-376530Y1894780D01*
Y1900880D01*
G01X-385000Y1875480D02*
X-364680D01*
X-368740Y1878530D01*
G01X-385000D02*
Y1872430D01*
G01X-391770Y1862780D02*
Y1847540D01*
G01X-364680Y1834840D02*
X-365360Y1836870D01*
X-367050Y1838400D01*
X-369080Y1839410D01*
X-371790Y1840170D01*
X-374840Y1840430D01*
X-377890Y1840170D01*
X-380600Y1839410D01*
X-382630Y1838400D01*
X-384320Y1836870D01*
X-385000Y1834840D01*
X-384320Y1832810D01*
X-382630Y1831280D01*
X-380600Y1830270D01*
X-377890Y1829510D01*
X-374840Y1829250D01*
X-371790Y1829510D01*
X-369080Y1830270D01*
X-367050Y1831280D01*
X-365360Y1832810D01*
X-364680Y1834840D01*
G01X-380940Y1820110D02*
X-383310Y1818580D01*
X-384660Y1816550D01*
X-385000Y1814270D01*
X-384660Y1812230D01*
X-382970Y1810200D01*
X-380940Y1808930D01*
X-378900Y1808680D01*
X-376530Y1809190D01*
X-374840Y1810960D01*
X-374160Y1812740D01*
Y1815030D01*
G01Y1812740D02*
X-373150Y1811220D01*
X-371450Y1809950D01*
X-369420Y1809440D01*
X-367390Y1809950D01*
X-365700Y1811220D01*
X-364680Y1813500D01*
X-365020Y1815790D01*
X-366370Y1818080D01*
G01X-371450Y1798770D02*
X-385000Y1794200D01*
X-371450Y1789630D01*
G01X-368070Y1778710D02*
X-366030Y1777180D01*
X-365020Y1775400D01*
X-364680Y1773370D01*
X-365360Y1770830D01*
X-367050Y1769050D01*
X-369080Y1768550D01*
X-371120Y1768800D01*
X-372810Y1769820D01*
X-376190Y1774900D01*
X-378570Y1777180D01*
X-381950Y1778710D01*
X-385000Y1779210D01*
Y1768550D01*
G01X-398230Y2020290D02*
X-397110Y2021770D01*
X-396140Y2022620D01*
X-394850Y2023040D01*
X-393730Y2022620D01*
X-392920Y2021770D01*
X-392280Y2020500D01*
X-392120Y2019020D01*
X-392280Y2017750D01*
X-392920Y2016480D01*
X-393890Y2015420D01*
X-395010Y2015000D01*
X-396300Y2015420D01*
X-397430Y2016690D01*
X-398070Y2018600D01*
X-398230Y2020710D01*
X-397910Y2023470D01*
X-397430Y2024950D01*
X-396620Y2026430D01*
X-395500Y2027490D01*
X-394370Y2027700D01*
X-393240Y2027280D01*
X-392440Y2026220D01*
G01X-398710Y2076900D02*
X-397750Y2075850D01*
X-396620Y2075210D01*
X-395180Y2075000D01*
X-393730Y2075420D01*
X-392600Y2076270D01*
X-391800Y2077750D01*
X-391640Y2079440D01*
X-391960Y2081140D01*
X-392760Y2082200D01*
X-393890Y2083040D01*
X-395010Y2083250D01*
X-396140Y2083040D01*
X-397590Y2082200D01*
X-397110Y2087700D01*
X-392760D01*
G01X-406990Y2232700D02*
X-402970Y2220000D01*
X-398940Y2232700D01*
G01X-393550Y2220000D02*
Y2232700D01*
X-390340D01*
X-389050Y2232060D01*
X-388080Y2231220D01*
X-387280Y2229950D01*
X-386640Y2228470D01*
X-386480Y2226350D01*
X-386640Y2224230D01*
X-387280Y2222750D01*
X-388080Y2221480D01*
X-389050Y2220630D01*
X-390340Y2220000D01*
X-393550D01*
G01X-380600Y2221900D02*
X-379640Y2220850D01*
X-378510Y2220210D01*
X-377070Y2220000D01*
X-375620Y2220420D01*
X-374490Y2221270D01*
X-373690Y2222750D01*
X-373530Y2224440D01*
X-373850Y2226140D01*
X-374650Y2227200D01*
X-375780Y2228040D01*
X-376900Y2228250D01*
X-378030Y2228040D01*
X-379480Y2227200D01*
X-379000Y2232700D01*
X-374650D01*
G01X-265180Y1565000D02*
Y1577700D01*
X-267110Y1575160D01*
G01Y1565000D02*
X-263250D01*
G01X-295000Y1922320D02*
X-274680D01*
Y1916220D01*
X-275700Y1914190D01*
X-278070Y1912670D01*
X-280780Y1912160D01*
X-283490Y1912670D01*
X-285520Y1913940D01*
X-286530Y1916220D01*
Y1922320D01*
G01X-295000Y1900480D02*
X-281450D01*
G01X-284160D02*
X-282810Y1899210D01*
X-281790Y1897940D01*
X-281450Y1896160D01*
X-281790Y1894890D01*
X-282810Y1893360D01*
G01X-295000Y1876600D02*
X-294660Y1878120D01*
X-293310Y1879650D01*
X-290940Y1880660D01*
X-288230Y1881170D01*
X-285520Y1880660D01*
X-283150Y1879650D01*
X-281790Y1878120D01*
X-281450Y1876600D01*
X-281790Y1875080D01*
X-283150Y1873550D01*
X-285520Y1872540D01*
X-288230Y1872280D01*
X-290940Y1872540D01*
X-293310Y1873550D01*
X-294660Y1875080D01*
X-295000Y1876600D01*
G01X-292630Y1860090D02*
X-293980Y1858820D01*
X-295000Y1857040D01*
Y1855520D01*
X-294320Y1853990D01*
X-293310Y1852980D01*
X-291950Y1852470D01*
X-289920Y1852720D01*
X-288900Y1853740D01*
X-286870Y1858310D01*
X-284500Y1859330D01*
X-282810Y1858820D01*
X-281790Y1857800D01*
X-281450Y1856280D01*
X-281790Y1854760D01*
X-282810Y1853230D01*
G01X-295000Y1835960D02*
X-294660Y1837480D01*
X-293310Y1839010D01*
X-290940Y1840020D01*
X-288230Y1840530D01*
X-285520Y1840020D01*
X-283150Y1839010D01*
X-281790Y1837480D01*
X-281450Y1835960D01*
X-281790Y1834440D01*
X-283150Y1832910D01*
X-285520Y1831900D01*
X-288230Y1831640D01*
X-290940Y1831900D01*
X-293310Y1832910D01*
X-294660Y1834440D01*
X-295000Y1835960D01*
G01Y1817160D02*
X-277730D01*
X-276030Y1816660D01*
X-275020Y1815640D01*
X-274680Y1814120D01*
X-275360Y1812590D01*
X-277050Y1811830D01*
G01X-282810Y1814880D02*
Y1819960D01*
G01X-274680Y1795320D02*
X-295000D01*
G01X-281450Y1798880D02*
Y1791760D01*
G01X-288230Y1778300D02*
Y1771700D01*
G01X-292290Y1760010D02*
X-293980Y1757980D01*
X-295000Y1755700D01*
Y1753660D01*
X-293980Y1751630D01*
X-292290Y1750110D01*
X-289920Y1749350D01*
X-287550Y1749850D01*
X-285520Y1751120D01*
X-284160Y1753410D01*
X-283490Y1756460D01*
X-282130Y1758240D01*
X-279760Y1759000D01*
X-277390Y1758490D01*
X-275700Y1757220D01*
X-274680Y1755440D01*
Y1753660D01*
X-275360Y1751890D01*
X-277050Y1750360D01*
G01X-301100Y1739690D02*
X-301770Y1738170D01*
X-301100Y1736140D01*
X-299740Y1734870D01*
X-298050Y1733850D01*
X-292630Y1732330D01*
X-281450Y1729030D01*
G01Y1737150D02*
X-292630Y1732330D01*
G01Y1717850D02*
X-293980Y1716580D01*
X-295000Y1714800D01*
Y1713280D01*
X-294320Y1711750D01*
X-293310Y1710740D01*
X-291950Y1710230D01*
X-289920Y1710480D01*
X-288900Y1711500D01*
X-286870Y1716070D01*
X-284500Y1717090D01*
X-282810Y1716580D01*
X-281790Y1715560D01*
X-281450Y1714040D01*
X-281790Y1712520D01*
X-282810Y1710990D01*
G01X-274680Y1693720D02*
X-295000D01*
G01X-281450Y1697280D02*
Y1690160D01*
G01X-285860Y1677210D02*
Y1669080D01*
X-283490Y1669840D01*
X-282130Y1671110D01*
X-281450Y1672890D01*
X-281790Y1674670D01*
X-282810Y1676190D01*
X-285180Y1677210D01*
X-287210Y1677720D01*
X-289240D01*
X-291270Y1677210D01*
X-293310Y1675940D01*
X-294660Y1674420D01*
X-295000Y1672640D01*
X-294320Y1670860D01*
X-292290Y1669080D01*
G01X-295000Y1660700D02*
X-281450D01*
G01X-285180D02*
X-283490Y1659940D01*
X-282130Y1658670D01*
X-281450Y1656890D01*
X-282130Y1655110D01*
X-283490Y1653840D01*
X-285180Y1653080D01*
X-295000D01*
G01X-285180D02*
X-283490Y1652320D01*
X-282130Y1651050D01*
X-281450Y1649270D01*
X-282130Y1647490D01*
X-283490Y1646220D01*
X-285520Y1645460D01*
X-295000D01*
G01X-292630Y1636570D02*
X-293980Y1635300D01*
X-295000Y1633520D01*
Y1632000D01*
X-294320Y1630470D01*
X-293310Y1629460D01*
X-291950Y1628950D01*
X-289920Y1629200D01*
X-288900Y1630220D01*
X-286870Y1634790D01*
X-284500Y1635810D01*
X-282810Y1635300D01*
X-281790Y1634280D01*
X-281450Y1632760D01*
X-281790Y1631240D01*
X-282810Y1629710D01*
G01X-325000Y1916760D02*
X-324660Y1918790D01*
X-323310Y1920570D01*
X-321270Y1922090D01*
X-318900Y1923110D01*
X-316190Y1923620D01*
X-313490D01*
X-310780Y1923110D01*
X-308410Y1922090D01*
X-306370Y1920570D01*
X-305020Y1918790D01*
X-304680Y1916760D01*
X-305020Y1914730D01*
X-306370Y1912950D01*
X-308410Y1911430D01*
X-310780Y1910410D01*
X-313490Y1909900D01*
X-316190D01*
X-318900Y1910410D01*
X-321270Y1911430D01*
X-323310Y1912950D01*
X-324660Y1914730D01*
X-325000Y1916760D01*
G01X-313150Y1892380D02*
X-311790Y1894150D01*
X-311450Y1895680D01*
X-312130Y1897710D01*
X-313490Y1899230D01*
X-315860Y1900250D01*
X-318230Y1900500D01*
X-320600Y1900250D01*
X-322630Y1899230D01*
X-324320Y1897710D01*
X-325000Y1895680D01*
X-324320Y1893900D01*
X-322970Y1892380D01*
G01X-304680Y1876120D02*
X-325000D01*
G01X-311450Y1879680D02*
Y1872560D01*
G01X-325000Y1855800D02*
X-324660Y1857320D01*
X-323310Y1858850D01*
X-320940Y1859860D01*
X-318230Y1860370D01*
X-315520Y1859860D01*
X-313150Y1858850D01*
X-311790Y1857320D01*
X-311450Y1855800D01*
X-311790Y1854280D01*
X-313150Y1852750D01*
X-315520Y1851740D01*
X-318230Y1851480D01*
X-320940Y1851740D01*
X-323310Y1852750D01*
X-324660Y1854280D01*
X-325000Y1855800D01*
G01Y1840050D02*
X-304680D01*
G01X-314840D02*
X-312810Y1838780D01*
X-311790Y1837260D01*
X-311450Y1835730D01*
X-312130Y1833450D01*
X-313490Y1831920D01*
X-315860Y1830910D01*
X-318570D01*
X-321270Y1831420D01*
X-323310Y1832430D01*
X-324660Y1834210D01*
X-325000Y1835730D01*
X-324660Y1837260D01*
X-323650Y1838780D01*
X-321950Y1840050D01*
G01X-315860Y1818970D02*
Y1810840D01*
X-313490Y1811600D01*
X-312130Y1812870D01*
X-311450Y1814650D01*
X-311790Y1816430D01*
X-312810Y1817950D01*
X-315180Y1818970D01*
X-317210Y1819480D01*
X-319240D01*
X-321270Y1818970D01*
X-323310Y1817700D01*
X-324660Y1816180D01*
X-325000Y1814400D01*
X-324320Y1812620D01*
X-322290Y1810840D01*
G01X-325000Y1798400D02*
X-311450D01*
G01X-314160D02*
X-312810Y1797130D01*
X-311790Y1795860D01*
X-311450Y1794080D01*
X-311790Y1792810D01*
X-312810Y1791280D01*
G01X-308070Y1759030D02*
X-306030Y1757500D01*
X-305020Y1755720D01*
X-304680Y1753690D01*
X-305360Y1751150D01*
X-307050Y1749370D01*
X-309080Y1748870D01*
X-311120Y1749120D01*
X-312810Y1750140D01*
X-316190Y1755220D01*
X-318570Y1757500D01*
X-321950Y1759030D01*
X-325000Y1759530D01*
Y1748870D01*
G01X-304680Y1733880D02*
X-305360Y1735910D01*
X-307050Y1737440D01*
X-309080Y1738450D01*
X-311790Y1739210D01*
X-314840Y1739470D01*
X-317890Y1739210D01*
X-320600Y1738450D01*
X-322630Y1737440D01*
X-324320Y1735910D01*
X-325000Y1733880D01*
X-324320Y1731850D01*
X-322630Y1730320D01*
X-320600Y1729310D01*
X-317890Y1728550D01*
X-314840Y1728290D01*
X-311790Y1728550D01*
X-309080Y1729310D01*
X-307050Y1730320D01*
X-305360Y1731850D01*
X-304680Y1733880D01*
G01X-325000Y1713560D02*
X-304680D01*
X-308740Y1716610D01*
G01X-325000D02*
Y1710510D01*
G01Y1690190D02*
X-304680D01*
X-319240Y1699590D01*
Y1686890D01*
G01X-244180Y809000D02*
Y821700D01*
X-240160D01*
X-238870Y821060D01*
X-238070Y820220D01*
X-237750Y818520D01*
X-238070Y816830D01*
X-239030Y815770D01*
X-240160Y815140D01*
X-244180D01*
G01X-240160D02*
X-237750Y809000D01*
G01X-226080D02*
Y821700D01*
X-232040Y812600D01*
X-223990D01*
G01X-215070Y809000D02*
Y821700D01*
X-217000Y819160D01*
G01Y809000D02*
X-213140D01*
G01X-228230Y1515580D02*
X-227270Y1516850D01*
X-226140Y1517490D01*
X-224850Y1517700D01*
X-223240Y1517280D01*
X-222120Y1516220D01*
X-221800Y1514950D01*
X-221960Y1513680D01*
X-222600Y1512620D01*
X-225820Y1510500D01*
X-227270Y1509020D01*
X-228230Y1506900D01*
X-228550Y1505000D01*
X-221800D01*
G01X-186180Y1645000D02*
Y1657700D01*
X-182160D01*
X-180870Y1657060D01*
X-180070Y1656220D01*
X-179750Y1654520D01*
X-180070Y1652830D01*
X-181030Y1651770D01*
X-182160Y1651140D01*
X-186180D01*
G01X-182160D02*
X-179750Y1645000D01*
G01X-170020D02*
Y1657700D01*
X-171950Y1655160D01*
G01Y1645000D02*
X-168090D01*
G01X-155130D02*
Y1657700D01*
X-161090Y1648600D01*
X-153040D01*
G01X-186180Y1745000D02*
Y1757700D01*
X-182160D01*
X-180870Y1757060D01*
X-180070Y1756220D01*
X-179750Y1754520D01*
X-180070Y1752830D01*
X-181030Y1751770D01*
X-182160Y1751140D01*
X-186180D01*
G01X-182160D02*
X-179750Y1745000D01*
G01X-170020D02*
Y1757700D01*
X-171950Y1755160D01*
G01Y1745000D02*
X-168090D01*
G01X-160600Y1747540D02*
X-159640Y1746060D01*
X-158350Y1745210D01*
X-156900Y1745000D01*
X-155620Y1745210D01*
X-154330Y1746270D01*
X-153530Y1747540D01*
X-153370Y1748810D01*
X-153690Y1750290D01*
X-154810Y1751350D01*
X-155940Y1751770D01*
X-157390D01*
G01X-155940D02*
X-154970Y1752410D01*
X-154170Y1753470D01*
X-153850Y1754740D01*
X-154170Y1756010D01*
X-154970Y1757060D01*
X-156420Y1757700D01*
X-157870Y1757490D01*
X-159320Y1756640D01*
G01X-186180Y1775000D02*
Y1787700D01*
X-182160D01*
X-180870Y1787060D01*
X-180070Y1786220D01*
X-179750Y1784520D01*
X-180070Y1782830D01*
X-181030Y1781770D01*
X-182160Y1781140D01*
X-186180D01*
G01X-182160D02*
X-179750Y1775000D01*
G01X-170020D02*
Y1787700D01*
X-171950Y1785160D01*
G01Y1775000D02*
X-168090D01*
G01X-160120Y1785580D02*
X-159160Y1786850D01*
X-158030Y1787490D01*
X-156740Y1787700D01*
X-155130Y1787280D01*
X-154010Y1786220D01*
X-153690Y1784950D01*
X-153850Y1783680D01*
X-154490Y1782620D01*
X-157710Y1780500D01*
X-159160Y1779020D01*
X-160120Y1776900D01*
X-160440Y1775000D01*
X-153690D01*
G01X-201180Y2125000D02*
Y2137700D01*
X-197160D01*
X-195870Y2137060D01*
X-195070Y2136220D01*
X-194750Y2134520D01*
X-195070Y2132830D01*
X-196030Y2131770D01*
X-197160Y2131140D01*
X-201180D01*
G01X-197160D02*
X-194750Y2125000D01*
G01X-185020D02*
Y2137700D01*
X-186950Y2135160D01*
G01Y2125000D02*
X-183090D01*
G01X-172070Y2137700D02*
X-173350Y2137280D01*
X-174320Y2136220D01*
X-174960Y2134950D01*
X-175440Y2133250D01*
X-175600Y2131350D01*
X-175440Y2129440D01*
X-174960Y2127750D01*
X-174320Y2126480D01*
X-173350Y2125420D01*
X-172070Y2125000D01*
X-170780Y2125420D01*
X-169810Y2126480D01*
X-169170Y2127750D01*
X-168690Y2129440D01*
X-168530Y2131350D01*
X-168690Y2133250D01*
X-169170Y2134950D01*
X-169810Y2136220D01*
X-170780Y2137280D01*
X-172070Y2137700D01*
G01X-199690Y2085000D02*
Y2097700D01*
X-195670D01*
X-194380Y2097060D01*
X-193580Y2096220D01*
X-193260Y2094520D01*
X-193580Y2092830D01*
X-194540Y2091770D01*
X-195670Y2091140D01*
X-199690D01*
G01X-195670D02*
X-193260Y2085000D01*
G01X-183530D02*
X-182400Y2085210D01*
X-181110Y2085850D01*
X-180310Y2086900D01*
X-179990Y2088390D01*
X-180310Y2089870D01*
X-181270Y2091140D01*
X-182720Y2091770D01*
X-184330D01*
X-185290Y2092200D01*
X-186100Y2093250D01*
X-186420Y2094740D01*
X-185940Y2096220D01*
X-184810Y2097280D01*
X-183530Y2097700D01*
X-182240Y2097280D01*
X-181110Y2096220D01*
X-180630Y2094740D01*
X-180950Y2093250D01*
X-181760Y2092200D01*
X-182720Y2091770D01*
X-184330D01*
X-185780Y2091140D01*
X-186740Y2089870D01*
X-187060Y2088390D01*
X-186740Y2086900D01*
X-185940Y2085850D01*
X-184650Y2085210D01*
X-183530Y2085000D01*
G01X-201180Y2175000D02*
Y2187700D01*
X-197160D01*
X-195870Y2187060D01*
X-195070Y2186220D01*
X-194750Y2184520D01*
X-195070Y2182830D01*
X-196030Y2181770D01*
X-197160Y2181140D01*
X-201180D01*
G01X-197160D02*
X-194750Y2175000D01*
G01X-185020D02*
Y2187700D01*
X-186950Y2185160D01*
G01Y2175000D02*
X-183090D01*
G01X-172070D02*
Y2187700D01*
X-174000Y2185160D01*
G01Y2175000D02*
X-170140D01*
G01X-199690Y2215000D02*
Y2227700D01*
X-195670D01*
X-194380Y2227060D01*
X-193580Y2226220D01*
X-193260Y2224520D01*
X-193580Y2222830D01*
X-194540Y2221770D01*
X-195670Y2221140D01*
X-199690D01*
G01X-195670D02*
X-193260Y2215000D01*
G01X-186260Y2216480D02*
X-185130Y2215420D01*
X-183850Y2215000D01*
X-182560Y2215420D01*
X-181430Y2216690D01*
X-180630Y2218600D01*
X-180310Y2220500D01*
Y2222830D01*
X-180630Y2224740D01*
X-181430Y2226430D01*
X-182400Y2227280D01*
X-183530Y2227700D01*
X-184810Y2227280D01*
X-185780Y2226430D01*
X-186420Y2225160D01*
X-186740Y2223470D01*
X-186420Y2221990D01*
X-185620Y2220500D01*
X-184650Y2219660D01*
X-183530Y2219440D01*
X-182240Y2219870D01*
X-181270Y2220930D01*
X-180310Y2222830D01*
G01X-144180Y809000D02*
Y821700D01*
X-140160D01*
X-138870Y821060D01*
X-138070Y820220D01*
X-137750Y818520D01*
X-138070Y816830D01*
X-139030Y815770D01*
X-140160Y815140D01*
X-144180D01*
G01X-140160D02*
X-137750Y809000D01*
G01X-126080D02*
Y821700D01*
X-132040Y812600D01*
X-123990D01*
G01X-115070Y821700D02*
X-116350Y821280D01*
X-117320Y820220D01*
X-117960Y818950D01*
X-118440Y817250D01*
X-118600Y815350D01*
X-118440Y813440D01*
X-117960Y811750D01*
X-117320Y810480D01*
X-116350Y809420D01*
X-115070Y809000D01*
X-113780Y809420D01*
X-112810Y810480D01*
X-112170Y811750D01*
X-111690Y813440D01*
X-111530Y815350D01*
X-111690Y817250D01*
X-112170Y818950D01*
X-112810Y820220D01*
X-113780Y821280D01*
X-115070Y821700D01*
G01X-153240Y1325000D02*
Y1337700D01*
X-159200Y1328600D01*
X-151150D01*
G01X-168710Y1407540D02*
X-167750Y1406060D01*
X-166460Y1405210D01*
X-165010Y1405000D01*
X-163730Y1405210D01*
X-162440Y1406270D01*
X-161640Y1407540D01*
X-161480Y1408810D01*
X-161800Y1410290D01*
X-162920Y1411350D01*
X-164050Y1411770D01*
X-165500D01*
G01X-164050D02*
X-163080Y1412410D01*
X-162280Y1413470D01*
X-161960Y1414740D01*
X-162280Y1416010D01*
X-163080Y1417060D01*
X-164530Y1417700D01*
X-165980Y1417490D01*
X-167430Y1416640D01*
G01X-139690Y1495000D02*
Y1507700D01*
X-135670D01*
X-134380Y1507060D01*
X-133580Y1506220D01*
X-133260Y1504520D01*
X-133580Y1502830D01*
X-134540Y1501770D01*
X-135670Y1501140D01*
X-139690D01*
G01X-135670D02*
X-133260Y1495000D01*
G01X-123850D02*
X-123530Y1497750D01*
X-123040Y1500080D01*
X-122400Y1502200D01*
X-121590Y1504520D01*
X-120310Y1507700D01*
X-126740D01*
G01X-140180Y1545000D02*
Y1557700D01*
X-142110Y1555160D01*
G01Y1545000D02*
X-138250D01*
G01X-130760Y1547540D02*
X-129800Y1546060D01*
X-128510Y1545210D01*
X-127060Y1545000D01*
X-125780Y1545210D01*
X-124490Y1546270D01*
X-123690Y1547540D01*
X-123530Y1548810D01*
X-123850Y1550290D01*
X-124970Y1551350D01*
X-126100Y1551770D01*
X-127550D01*
G01X-126100D02*
X-125130Y1552410D01*
X-124330Y1553470D01*
X-124010Y1554740D01*
X-124330Y1556010D01*
X-125130Y1557060D01*
X-126580Y1557700D01*
X-128030Y1557490D01*
X-129480Y1556640D01*
G01X-135180Y1575000D02*
Y1587700D01*
X-137110Y1585160D01*
G01Y1575000D02*
X-133250D01*
G01X-120290D02*
Y1587700D01*
X-126250Y1578600D01*
X-118200D01*
G01X-140180Y1690000D02*
Y1702700D01*
X-142110Y1700160D01*
G01Y1690000D02*
X-138250D01*
G01X-127230D02*
Y1702700D01*
X-129160Y1700160D01*
G01Y1690000D02*
X-125300D01*
G01X-105180D02*
Y1702700D01*
X-107110Y1700160D01*
G01Y1690000D02*
X-103250D01*
G01X-95280Y1700580D02*
X-94320Y1701850D01*
X-93190Y1702490D01*
X-91900Y1702700D01*
X-90290Y1702280D01*
X-89170Y1701220D01*
X-88850Y1699950D01*
X-89010Y1698680D01*
X-89650Y1697620D01*
X-92870Y1695500D01*
X-94320Y1694020D01*
X-95280Y1691900D01*
X-95600Y1690000D01*
X-88850D01*
G01X-107910Y1811480D02*
X-106780Y1810420D01*
X-105500Y1810000D01*
X-104210Y1810420D01*
X-103080Y1811690D01*
X-102280Y1813600D01*
X-101960Y1815500D01*
Y1817830D01*
X-102280Y1819740D01*
X-103080Y1821430D01*
X-104050Y1822280D01*
X-105180Y1822700D01*
X-106460Y1822280D01*
X-107430Y1821430D01*
X-108070Y1820160D01*
X-108390Y1818470D01*
X-108070Y1816990D01*
X-107270Y1815500D01*
X-106300Y1814660D01*
X-105180Y1814440D01*
X-103890Y1814870D01*
X-102920Y1815930D01*
X-101960Y1817830D01*
G01X-150180Y1815000D02*
Y1827700D01*
X-152110Y1825160D01*
G01Y1815000D02*
X-148250D01*
G01X-137230Y1827700D02*
X-138510Y1827280D01*
X-139480Y1826220D01*
X-140120Y1824950D01*
X-140600Y1823250D01*
X-140760Y1821350D01*
X-140600Y1819440D01*
X-140120Y1817750D01*
X-139480Y1816480D01*
X-138510Y1815420D01*
X-137230Y1815000D01*
X-135940Y1815420D01*
X-134970Y1816480D01*
X-134330Y1817750D01*
X-133850Y1819440D01*
X-133690Y1821350D01*
X-133850Y1823250D01*
X-134330Y1824950D01*
X-134970Y1826220D01*
X-135940Y1827280D01*
X-137230Y1827700D01*
G01X-176990Y1877700D02*
X-172970Y1865000D01*
X-168940Y1877700D01*
G01X-163550Y1865000D02*
Y1877700D01*
X-160340D01*
X-159050Y1877060D01*
X-158080Y1876220D01*
X-157280Y1874950D01*
X-156640Y1873470D01*
X-156480Y1871350D01*
X-156640Y1869230D01*
X-157280Y1867750D01*
X-158080Y1866480D01*
X-159050Y1865630D01*
X-160340Y1865000D01*
X-163550D01*
G01X-147070D02*
Y1877700D01*
X-149000Y1875160D01*
G01Y1865000D02*
X-145140D01*
G01X-176180Y1970000D02*
Y1982700D01*
X-172160D01*
X-170870Y1982060D01*
X-170070Y1981220D01*
X-169750Y1979520D01*
X-170070Y1977830D01*
X-171030Y1976770D01*
X-172160Y1976140D01*
X-176180D01*
G01X-172160D02*
X-169750Y1970000D01*
G01X-160020D02*
Y1982700D01*
X-161950Y1980160D01*
G01Y1970000D02*
X-158090D01*
G01X-150600Y1971900D02*
X-149640Y1970850D01*
X-148510Y1970210D01*
X-147070Y1970000D01*
X-145620Y1970420D01*
X-144490Y1971270D01*
X-143690Y1972750D01*
X-143530Y1974440D01*
X-143850Y1976140D01*
X-144650Y1977200D01*
X-145780Y1978040D01*
X-146900Y1978250D01*
X-148030Y1978040D01*
X-149480Y1977200D01*
X-149000Y1982700D01*
X-144650D01*
G01X-116180Y1970000D02*
Y1982700D01*
X-112160D01*
X-110870Y1982060D01*
X-110070Y1981220D01*
X-109750Y1979520D01*
X-110070Y1977830D01*
X-111030Y1976770D01*
X-112160Y1976140D01*
X-116180D01*
G01X-112160D02*
X-109750Y1970000D01*
G01X-103070Y1980580D02*
X-102110Y1981850D01*
X-100980Y1982490D01*
X-99690Y1982700D01*
X-98080Y1982280D01*
X-96960Y1981220D01*
X-96640Y1979950D01*
X-96800Y1978680D01*
X-97440Y1977620D01*
X-100660Y1975500D01*
X-102110Y1974020D01*
X-103070Y1971900D01*
X-103390Y1970000D01*
X-96640D01*
G01X-87070D02*
Y1982700D01*
X-89000Y1980160D01*
G01Y1970000D02*
X-85140D01*
G01X-136180Y2050000D02*
Y2062700D01*
X-132160D01*
X-130870Y2062060D01*
X-130070Y2061220D01*
X-129750Y2059520D01*
X-130070Y2057830D01*
X-131030Y2056770D01*
X-132160Y2056140D01*
X-136180D01*
G01X-132160D02*
X-129750Y2050000D01*
G01X-120020D02*
Y2062700D01*
X-121950Y2060160D01*
G01Y2050000D02*
X-118090D01*
G01X-110120Y2055290D02*
X-109000Y2056770D01*
X-108030Y2057620D01*
X-106740Y2058040D01*
X-105620Y2057620D01*
X-104810Y2056770D01*
X-104170Y2055500D01*
X-104010Y2054020D01*
X-104170Y2052750D01*
X-104810Y2051480D01*
X-105780Y2050420D01*
X-106900Y2050000D01*
X-108190Y2050420D01*
X-109320Y2051690D01*
X-109960Y2053600D01*
X-110120Y2055710D01*
X-109800Y2058470D01*
X-109320Y2059950D01*
X-108510Y2061430D01*
X-107390Y2062490D01*
X-106260Y2062700D01*
X-105130Y2062280D01*
X-104330Y2061220D01*
G01X-36340Y1590000D02*
Y1602700D01*
G01X-29590D02*
Y1590000D01*
G01Y1596350D02*
X-36340D01*
G01X-23230Y1602700D02*
Y1590000D01*
X-16800D01*
G01X-5130D02*
Y1602700D01*
X-11090Y1593600D01*
X-3040D01*
G01X-56180Y1970000D02*
Y1982700D01*
X-52160D01*
X-50870Y1982060D01*
X-50070Y1981220D01*
X-49750Y1979520D01*
X-50070Y1977830D01*
X-51030Y1976770D01*
X-52160Y1976140D01*
X-56180D01*
G01X-52160D02*
X-49750Y1970000D01*
G01X-43070Y1980580D02*
X-42110Y1981850D01*
X-40980Y1982490D01*
X-39690Y1982700D01*
X-38080Y1982280D01*
X-36960Y1981220D01*
X-36640Y1979950D01*
X-36800Y1978680D01*
X-37440Y1977620D01*
X-40660Y1975500D01*
X-42110Y1974020D01*
X-43070Y1971900D01*
X-43390Y1970000D01*
X-36640D01*
G01X-30120Y1975290D02*
X-29000Y1976770D01*
X-28030Y1977620D01*
X-26740Y1978040D01*
X-25620Y1977620D01*
X-24810Y1976770D01*
X-24170Y1975500D01*
X-24010Y1974020D01*
X-24170Y1972750D01*
X-24810Y1971480D01*
X-25780Y1970420D01*
X-26900Y1970000D01*
X-28190Y1970420D01*
X-29320Y1971690D01*
X-29960Y1973600D01*
X-30120Y1975710D01*
X-29800Y1978470D01*
X-29320Y1979950D01*
X-28510Y1981430D01*
X-27390Y1982490D01*
X-26260Y1982700D01*
X-25130Y1982280D01*
X-24330Y1981220D01*
G01X-76180Y2050000D02*
Y2062700D01*
X-72160D01*
X-70870Y2062060D01*
X-70070Y2061220D01*
X-69750Y2059520D01*
X-70070Y2057830D01*
X-71030Y2056770D01*
X-72160Y2056140D01*
X-76180D01*
G01X-72160D02*
X-69750Y2050000D01*
G01X-63070Y2060580D02*
X-62110Y2061850D01*
X-60980Y2062490D01*
X-59690Y2062700D01*
X-58080Y2062280D01*
X-56960Y2061220D01*
X-56640Y2059950D01*
X-56800Y2058680D01*
X-57440Y2057620D01*
X-60660Y2055500D01*
X-62110Y2054020D01*
X-63070Y2051900D01*
X-63390Y2050000D01*
X-56640D01*
G01X-50120Y2060580D02*
X-49160Y2061850D01*
X-48030Y2062490D01*
X-46740Y2062700D01*
X-45130Y2062280D01*
X-44010Y2061220D01*
X-43690Y2059950D01*
X-43850Y2058680D01*
X-44490Y2057620D01*
X-47710Y2055500D01*
X-49160Y2054020D01*
X-50120Y2051900D01*
X-50440Y2050000D01*
X-43690D01*
G01X-31340Y1690000D02*
Y1702700D01*
G01X-24590D02*
Y1690000D01*
G01Y1696350D02*
X-31340D01*
G01X-18230Y1702700D02*
Y1690000D01*
X-11800D01*
G01X-5600Y1692540D02*
X-4640Y1691060D01*
X-3350Y1690210D01*
X-1900Y1690000D01*
X-620Y1690210D01*
X670Y1691270D01*
X1470Y1692540D01*
X1630Y1693810D01*
X1310Y1695290D01*
X190Y1696350D01*
X-940Y1696770D01*
X-2390D01*
G01X-940D02*
X30Y1697410D01*
X830Y1698470D01*
X1150Y1699740D01*
X830Y1701010D01*
X30Y1702060D01*
X-1420Y1702700D01*
X-2870Y1702490D01*
X-4320Y1701640D01*
G01X-31340Y1790000D02*
Y1802700D01*
G01X-24590D02*
Y1790000D01*
G01Y1796350D02*
X-31340D01*
G01X-18230Y1802700D02*
Y1790000D01*
X-11800D01*
G01X-5120Y1800580D02*
X-4160Y1801850D01*
X-3030Y1802490D01*
X-1740Y1802700D01*
X-130Y1802280D01*
X990Y1801220D01*
X1310Y1799950D01*
X1150Y1798680D01*
X510Y1797620D01*
X-2710Y1795500D01*
X-4160Y1794020D01*
X-5120Y1791900D01*
X-5440Y1790000D01*
X1310D01*
G01X-26340Y1885000D02*
Y1897700D01*
G01X-19590D02*
Y1885000D01*
G01Y1891350D02*
X-26340D01*
G01X-13230Y1897700D02*
Y1885000D01*
X-6800D01*
G01X2930D02*
Y1897700D01*
X1000Y1895160D01*
G01Y1885000D02*
X4860D01*
G01X-16180Y2050000D02*
Y2062700D01*
X-12160D01*
X-10870Y2062060D01*
X-10070Y2061220D01*
X-9750Y2059520D01*
X-10070Y2057830D01*
X-11030Y2056770D01*
X-12160Y2056140D01*
X-16180D01*
G01X-12160D02*
X-9750Y2050000D01*
G01X-3070Y2060580D02*
X-2110Y2061850D01*
X-980Y2062490D01*
X310Y2062700D01*
X1920Y2062280D01*
X3040Y2061220D01*
X3360Y2059950D01*
X3200Y2058680D01*
X2560Y2057620D01*
X-660Y2055500D01*
X-2110Y2054020D01*
X-3070Y2051900D01*
X-3390Y2050000D01*
X3360D01*
G01X12610D02*
X12930Y2052750D01*
X13420Y2055080D01*
X14060Y2057200D01*
X14870Y2059520D01*
X16150Y2062700D01*
X9720D01*
M02*
